<?xml version="1.0" standalone="no"?>
<!DOCTYPE svg PUBLIC "-//W3C//DTD SVG 1.1//EN" "http://www.w3.org/Graphics/SVG/1.1/DTD/svg11.dtd" >
<svg xmlns="http://www.w3.org/2000/svg">
<metadata>Generated by IcoMoon</metadata>
<defs>
<font id="slds-active-icon" horiz-adv-x="1024">
<font-face units-per-em="1024" ascent="960" descent="-64" />
<missing-glyph horiz-adv-x="1024" />
<glyph unicode="&#x20;" horiz-adv-x="512" d="" />
<glyph unicode="&#xe900;" glyph-name="add_contact" d="M921.6 796.159h-819.2c-55.296 0-102.4-45.056-102.4-102.4v-491.519c0-55.296 47.104-102.4 102.4-102.4h819.2c57.343 0 102.4 45.056 102.4 102.4v491.519c0 57.343-45.056 102.4-102.4 102.4zM487.424 218.623h-294.912c-32.768 0-57.343 34.816-57.343 69.632 2.048 51.2 55.296 81.92 110.591 106.496 38.912 16.384 45.056 32.768 45.056 49.152s-10.24 32.768-24.576 45.056c-22.528 20.48-34.816 51.2-34.816 83.967 0 65.536 38.912 118.784 106.496 118.784s106.496-55.296 106.496-118.784c0-34.816-12.288-65.536-34.816-83.967-14.336-12.288-24.576-26.624-24.576-45.056 0-16.384 4.096-32.768 45.056-47.104 55.296-24.576 108.544-57.343 110.591-108.544 6.144-34.816-20.48-69.632-53.248-69.632zM886.784 337.408c0-18.432-16.384-34.816-34.816-34.816h-153.6c-18.432 0-34.816 14.336-34.816 34.816v51.2c0 18.432 16.384 34.816 34.816 34.816h153.6c18.432 0 34.816-14.336 34.816-34.816v-51.2zM886.784 523.775c0-18.432-16.384-34.816-34.816-34.816h-253.952c-18.432 0-34.816 14.336-34.816 34.816v51.2c0 18.432 16.384 34.816 34.816 34.816h256c18.432 0 34.816-14.336 34.816-34.816v-51.2z" />
<glyph unicode="&#xe901;" glyph-name="add_file" d="M164.266 232.535v529.066c-55.467 0-100.267-44.8-100.267-98.134v-627.2c0-55.467 44.8-100.267 100.267-100.267h497.067c55.467 0 100.267 44.8 100.267 98.134h-398.933c-108.8 0-198.399 0-198.399 198.399zM925.867 663.467h-166.4c-55.467 0-100.267 44.8-100.267 98.134v166.4c2.133 17.067-12.8 31.999-31.999 31.999h-264.534c-55.467 0-100.267-44.8-100.267-98.134v-627.2c0-55.467 44.8-98.134 100.267-98.134h497.067c55.467 0 100.267 44.8 100.267 98.134v394.667c0 19.2-14.934 34.134-34.134 34.134zM953.6 802.134l-153.6 151.466c-4.266 4.266-8.533 6.4-14.934 6.4-12.8 0-23.467-10.666-23.467-23.467v-108.8c0-36.267 29.866-66.133 66.133-66.133h108.8c12.8 0 23.467 10.666 23.467 23.467 0 6.4-2.133 10.666-6.4 17.067z" />
<glyph unicode="&#xe902;" glyph-name="add_photo_video" d="M511.999 575.999c-93.867 0-170.666-76.8-170.666-170.666s76.8-170.666 170.666-170.666 170.666 76.8 170.666 170.666-76.8 170.666-170.666 170.666zM938.666 704h-110.933c-29.866 0-55.467 14.934-72.534 38.4l-49.066 74.667c-14.934 36.267-51.201 57.6-89.6 57.6h-209.067c-38.4 0-74.667-21.333-91.733-57.6l-49.066-74.667c-14.934-23.467-42.667-38.4-72.534-38.4h-108.8c-46.933 0-85.333-38.4-85.333-85.333v-512c0-46.933 38.4-85.333 85.333-85.333h853.334c46.933 0 85.333 38.4 85.333 85.333v512c0 46.933-38.4 85.333-85.333 85.333zM511.999 149.332c-140.8 0-256.001 115.2-256.001 256.001s115.2 256.001 256.001 256.001 256.001-115.2 256.001-256.001-115.2-256.001-256.001-256.001z" />
<glyph unicode="&#xe903;" glyph-name="add_relationship" d="M725.333 576c0 46.933-38.4 85.333-85.333 85.333h-554.667c-46.933 0-85.333-38.4-85.333-85.333v-554.667c0-46.933 38.4-85.333 85.333-85.333h554.667c46.933 0 85.333 38.4 85.333 85.333v554.667zM554.667 277.334c0-10.667-10.667-21.333-21.333-21.333h-128v-128c0-10.667-10.667-21.333-21.333-21.333h-42.667c-10.667 0-21.333 10.667-21.333 21.333v128h-128c-10.667 0-21.333 10.667-21.333 21.333v42.667c0 10.667 10.667 21.333 21.333 21.333h128v128c0 10.667 10.667 21.333 21.333 21.333h42.667c10.667 0 21.333-10.667 21.333-21.333v-128h128c10.667 0 21.333-10.667 21.333-21.333v-42.667zM874.667 106.666h-64v128h64c12.8 0 21.333 8.533 21.333 21.333v554.667c0 12.8-8.533 21.333-21.333 21.333h-554.667c-12.8 0-21.333-8.533-21.333-21.333v-64h-128v64c0 83.2 66.133 149.333 149.333 149.333h554.667c83.2 0 149.333-66.133 149.333-149.333v-554.667c0-83.2-66.133-149.333-149.333-149.333z" />
<glyph unicode="&#xe904;" glyph-name="announcement" d="M444.854 32.525l-27.279 20.983c-29.377 20.983-29.377 62.951-29.377 83.934v60.853c0 16.787-14.689 31.475-31.475 31.475h-125.902c-16.787 0-31.475-14.689-31.475-31.475v-161.574c0-56.655 33.574-100.721 86.032-100.721h102.819c60.853 0 65.049 41.968 65.049 41.968s10.492 37.77-8.394 54.557zM912.788 607.475v287.476c0 50.361-62.951 65.049-96.525 31.475l-186.755-176.262c-29.377-25.181-67.147-35.672-104.918-35.672h-318.951c-109.115-2.098-195.147-96.525-195.147-205.64v-4.196c0-109.115 86.032-190.951 195.147-190.951h318.951c39.868 0 77.64-16.787 107.017-41.968l184.655-180.459c33.574-33.574 96.525-20.983 96.525 29.377v285.377c62.951 0 100.721 44.066 100.721 100.721s-37.77 100.721-100.721 100.721z" />
<glyph unicode="&#xe905;" glyph-name="apex" d="M992.132 148.448h-573.61c-16.996 0-31.867-14.872-31.867-31.867v-63.735c0-16.996 14.872-31.867 31.867-31.867h573.61c16.996 0 31.867 14.872 31.867 31.867v63.735c0 16.996-14.872 31.867-31.867 31.867zM501.378 535.104l-412.15 329.295c-12.746 10.622-31.867 8.498-42.49-6.374l-36.116-50.988c-10.622-14.872-6.374-33.992 6.374-44.614l293.179-233.693c10.622-8.498 10.622-25.494 0-33.992l-293.179-233.693c-12.746-10.622-16.996-31.867-6.374-44.614l36.116-55.237c10.622-14.872 29.742-16.996 42.49-6.374l412.15 329.295c16.996 12.746 16.996 38.241 0 50.988z" />
<glyph unicode="&#xe906;" glyph-name="approval" d="M363.286 98.524l-350.54 352.664c-12.746 12.746-12.746 33.992 0 46.739l46.739 46.739c12.746 12.746 33.992 12.746 46.739 0l263.436-265.561c8.498-8.498 23.37-8.498 31.867 0l516.249 520.498c12.746 12.746 33.992 12.746 46.739 0l46.739-46.739c12.746-12.746 12.746-33.992 0-46.739l-601.228-607.601c-12.746-14.872-33.992-14.872-46.739 0z" />
<glyph unicode="&#xe907;" glyph-name="back" d="M992.134 510.672h-705.329c-19.12 0-27.618 23.37-14.872 36.116l203.95 203.95c12.746 12.746 12.746 31.867 0 44.614l-46.739 46.739c-12.746 12.746-31.867 12.746-44.614 0l-371.784-371.784c-12.746-12.746-12.746-31.867 0-44.614l371.784-371.784c12.746-12.746 31.867-12.746 44.614 0l44.614 44.614c12.746 12.746 12.746 31.867 0 44.614l-203.95 203.95c-12.746 12.746-4.248 36.116 14.872 36.116h705.329c16.996 0 31.867 14.872 31.867 31.867v63.735c2.124 16.996-12.746 31.867-29.742 31.867z" />
<glyph unicode="&#xe908;" glyph-name="call" d="M979.844 194.629l-128.263 103.031c-29.437 23.13-71.491 25.232-100.928 2.102l-109.339-79.902c-12.616-10.513-31.54-8.411-44.156 4.205l-164.008 147.187-147.187 164.008c-12.616 12.616-12.616 29.437-4.205 44.156l79.902 109.339c23.13 29.437 21.026 71.491-2.102 100.928l-103.031 128.263c-31.54 37.848-88.312 42.054-124.058 6.308l-105.134-109.339c-16.822-16.822-25.232-42.054-25.232-65.183 10.513-214.473 107.236-418.431 250.217-561.413s346.941-239.704 561.413-250.217c23.13-2.102 46.259 8.411 63.080 25.232l109.339 109.339c35.745 33.643 33.643 92.517-6.308 121.954z" />
<glyph unicode="&#xe909;" glyph-name="canvas" d="M917.512 176.941c-4.302-58.084-10.756-120.471-21.512-180.706-2.151-17.21-21.512-36.572-38.723-38.723-116.168-12.907-230.185-21.512-346.353-21.512-114.017 0-230.185 6.454-344.202 21.512-17.21 2.151-36.572 19.361-38.723 38.723-15.059 94.655-23.664 191.463-23.664 288.269s8.605 193.614 23.664 288.269c2.151 17.21 21.512 34.421 38.723 38.723 70.992 8.605 139.832 12.907 208.672 17.21 0 0 55.933 2.151 51.631 55.933-4.302 47.328-86.050 79.597-86.050 159.193 0 64.538 64.538 116.168 169.949 116.168 103.26 0 167.798-51.631 167.798-116.168 0-81.748-79.597-111.866-83.899-159.193-4.302-51.631 51.631-55.933 51.631-55.933 70.992-2.151 141.983-8.605 210.824-17.21 17.21-2.151 36.572-19.361 38.723-38.723 10.756-66.689 17.21-129.076 21.512-195.765 0-19.361-15.059-38.723-34.421-38.723h-19.361c-19.361 0-49.479 15.059-62.387 30.117 0 0-45.177 47.328-94.655 49.479-79.597 2.151-139.832-66.689-139.832-141.983s60.235-146.286 137.681-144.134c47.328 2.151 94.655 49.479 94.655 49.479 15.059 12.907 43.026 25.815 62.387 25.815h19.361c23.664 0 38.723-12.907 36.572-30.117z" />
<glyph unicode="&#xe90a;" glyph-name="change_owner" d="M541.866 200.534c-64 25.6-74.667 49.066-74.667 74.667s17.067 49.066 38.4 68.266c38.4 31.999 55.467 83.2 55.467 136.534 0 100.267-61.867 181.334-177.066 181.334s-177.066-81.067-177.066-181.334c0-53.334 17.067-104.533 55.467-136.534 21.333-19.2 38.4-42.667 38.4-68.266s-10.666-49.066-74.667-74.667c-93.866-38.4-183.467-81.067-185.6-162.134 4.266-55.467 46.933-102.4 100.267-102.4h490.666c53.334 0 96 46.933 96 100.267-2.133 81.067-91.733 125.867-185.6 164.267zM908.8 597.334c0 157.867-130.133 288-288 288v74.667l-145.067-117.334c-6.4-6.4-4.266-17.067 2.133-23.467l142.933-115.199v74.667c100.267 0 181.334-81.067 181.334-181.334h-74.667l117.334-145.067c6.4-6.4 17.067-6.4 23.467 0l115.199 145.067h-74.667z" />
<glyph unicode="&#xe90b;" glyph-name="change_record_type" d="M384 206.687c0 16.787-14.689 31.475-31.475 31.475h-314.756c-16.787 0-31.475-14.689-31.475-31.475v-230.82c0-16.787 14.689-31.475 31.475-31.475h314.756c16.787 0 31.475 14.689 31.475 31.475v230.82zM134.294 531.934h-102.819c-20.983 0-31.475-18.885-18.885-29.377l167.869-174.164c8.394-6.295 20.983-6.295 29.377 0l167.869 174.164c12.59 12.59 2.098 29.377-18.885 29.377h-98.623c0 104.919 102.819 209.836 207.738 209.836v125.902c-188.853 0-333.641-146.885-333.641-335.739zM841.444 567.607c-8.394 6.295-20.983 6.295-29.377 0l-167.869-174.164c-12.59-12.59-2.098-29.377 18.885-29.377h100.721c0-125.902-86.032-209.836-211.934-209.836v-125.902c188.853 0 337.837 146.885 337.837 335.739h102.819c20.983 0 31.475 18.885 18.885 29.377l-169.968 174.164zM1013.51 920.133c0 16.787-14.689 31.475-31.475 31.475h-314.756c-16.787 0-31.475-14.689-31.475-31.475v-230.82c0-16.787 14.689-31.475 31.475-31.475h314.756c16.787 0 31.475 14.689 31.475 31.475v230.82z" />
<glyph unicode="&#xe90c;" glyph-name="check" d="M363.286 98.523l-350.54 352.664c-12.746 12.746-12.746 33.992 0 46.739l46.739 46.739c12.746 12.746 33.992 12.746 46.739 0l263.436-265.561c8.498-8.498 23.37-8.498 31.867 0l516.249 520.499c12.746 12.746 33.992 12.746 46.739 0l46.739-46.739c12.746-12.746 12.746-33.992 0-46.739l-601.229-607.602c-12.746-14.872-33.992-14.872-46.739 0z" />
<glyph unicode="&#xe90d;" glyph-name="clone" d="M938.667 959.999h-597.333c-46.933 0-85.333-38.4-85.333-85.333v-53.334c0-17.067 14.934-31.999 31.999-31.999h394.667c93.866 0 170.666-76.8 170.666-170.666v-394.667c0-17.067 14.934-31.999 31.999-31.999h53.334c46.933 0 85.333 38.4 85.333 85.333v597.333c0 46.933-38.4 85.333-85.333 85.333zM682.667 704h-597.333c-46.933 0-85.333-38.4-85.333-85.333v-597.333c0-46.933 38.4-85.333 85.333-85.333h597.333c46.933 0 85.333 38.4 85.333 85.333v597.333c0 46.933-38.4 85.333-85.333 85.333zM597.334 128c0-12.8-8.533-21.333-21.333-21.333h-384c-12.8 0-21.333 8.533-21.333 21.333v42.667c0 12.8 8.533 21.333 21.333 21.333h384c12.8 0 21.333-8.533 21.333-21.333v-42.667zM597.334 298.667c0-12.8-8.533-21.333-21.333-21.333h-384c-12.8 0-21.333 8.533-21.333 21.333v42.667c0 12.8 8.533 21.333 21.333 21.333h384c12.8 0 21.333-8.533 21.333-21.333v-42.667zM597.334 469.333c0-12.8-8.533-21.333-21.333-21.333h-384c-12.8 0-21.333 8.533-21.333 21.333v42.667c0 12.8 8.533 21.333 21.333 21.333h384c12.8 0 21.333-8.533 21.333-21.333v-42.667z" />
<glyph unicode="&#xe90e;" glyph-name="close" d="M647.89 465.844l359.637 359.637c16.472 16.472 16.472 41.18 0 57.651l-57.651 57.651c-16.472 16.472-41.18 16.472-57.651 0l-359.637-359.637c-10.98-10.98-27.453-10.98-38.432 0l-359.637 362.381c-16.472 16.472-41.18 16.472-57.651 0l-57.651-57.651c-16.472-16.472-16.472-41.18 0-57.651l359.637-359.637c10.98-10.98 10.98-27.453 0-38.432l-362.381-362.381c-16.472-16.472-16.472-41.18 0-57.651l57.651-57.651c16.472-16.472 41.18-16.472 57.651 0l362.381 359.637c10.98 10.98 27.453 10.98 38.432 0l359.637-359.637c16.472-16.472 41.18-16.472 57.651 0l57.651 57.651c16.472 16.472 16.472 41.18 0 57.651l-359.637 359.637c-8.235 10.98-8.235 27.453 0 38.432z" />
<glyph unicode="&#xe90f;" glyph-name="defer" d="M512 960c-281.6 0-512-230.4-512-512s230.4-512 512-512 512 230.4 512 512-230.4 512-512 512zM512 63.999c-211.2 0-384.001 172.8-384.001 384.001s172.8 384.001 384.001 384.001 384.001-172.8 384.001-384.001-172.8-384.001-384.001-384.001zM584.534 443.734c-6.4 6.4-8.533 14.934-8.533 23.467v204.8c0 17.067-14.934 32-32 32h-64c-17.067 0-32-14.934-32-32v-258.134c0-8.533 4.266-17.067 8.533-23.467l157.867-157.867c12.8-12.8 32-12.8 44.8 0l44.8 44.8c12.8 12.8 12.8 32 0 44.8l-119.467 121.6z" />
<glyph unicode="&#xe910;" glyph-name="delete" d="M927.999 789.334h-266.667v85.333c0 46.933-38.4 85.333-85.333 85.333h-128c-46.933 0-85.333-38.4-85.333-85.333v-85.333h-266.667c-17.067 0-32-14.934-32-32v-64c0-17.067 14.934-32 32-32h832.001c17.067 0 32 14.934 32 32v64c0 17.067-14.934 32-32 32zM447.999 853.334c0 12.8 8.533 21.333 21.333 21.333h85.333c12.8 0 21.333-8.533 21.333-21.333v-64h-128v64zM842.666 576h-661.334c-17.067 0-32-14.934-32-32v-501.333c0-59.733 46.933-106.667 106.667-106.667h512c59.733 0 106.667 46.933 106.667 106.667v501.333c0 17.067-14.934 32-32 32zM447.999 106.666c0-12.8-8.533-21.333-21.333-21.333h-42.667c-12.8 0-21.333 8.533-21.333 21.333v298.667c0 12.8 8.533 21.333 21.333 21.333h42.667c12.8 0 21.333-8.533 21.333-21.333v-298.667zM661.332 106.666c0-12.8-8.533-21.333-21.333-21.333h-42.667c-12.8 0-21.333 8.533-21.333 21.333v298.667c0 12.8 8.533 21.333 21.333 21.333h42.667c12.8 0 21.333-8.533 21.333-21.333v-298.667z" />
<glyph unicode="&#xe911;" glyph-name="description" d="M930.909 960h-837.818c-51.2 0-93.091-41.891-93.091-93.091v-837.818c0-51.2 41.891-93.091 93.091-93.091h837.818c51.2 0 93.091 41.891 93.091 93.091v837.818c0 51.2-41.891 93.091-93.091 93.091zM186.181 727.273c0 13.963 9.309 23.272 23.272 23.272h232.727c13.963 0 23.272-9.309 23.272-23.272v-232.727c0-13.963-9.309-23.272-23.272-23.272h-232.727c-13.963 0-23.272 9.309-23.272 23.272v232.727zM744.726 122.182c0-13.963-9.309-23.272-23.272-23.272h-512c-13.963 0-23.272 9.309-23.272 23.272v46.546c0 13.963 9.309 23.272 23.272 23.272h512c13.963 0 23.272-9.309 23.272-23.272v-46.546zM837.817 308.363c0-13.963-9.309-23.272-23.272-23.272h-605.090c-13.963 0-23.272 9.309-23.272 23.272v46.546c0 13.963 9.309 23.272 23.272 23.272h605.090c13.963 0 23.272-9.309 23.272-23.272v-46.546zM837.817 494.546c0-13.963-9.309-23.272-23.272-23.272h-232.727c-13.963 0-23.272 9.309-23.272 23.272v46.546c0 13.963 9.309 23.272 23.272 23.272h232.727c13.963 0 23.272-9.309 23.272-23.272v-46.546zM837.817 680.727c0-13.963-9.309-23.272-23.272-23.272h-232.727c-13.963 0-23.272 9.309-23.272 23.272v46.546c0 13.963 9.309 23.272 23.272 23.272h232.727c13.963 0 23.272-9.309 23.272-23.272v-46.546z" />
<glyph unicode="&#xe912;" glyph-name="dial_in" d="M279.272 820.363c0-77.119-62.517-139.636-139.636-139.636s-139.636 62.517-139.636 139.636c0 77.119 62.517 139.636 139.636 139.636s139.636-62.517 139.636-139.636zM279.272 448c0-77.119-62.517-139.636-139.636-139.636s-139.636 62.517-139.636 139.636c0 77.119 62.517 139.636 139.636 139.636s139.636-62.517 139.636-139.636zM651.635 820.363c0-77.119-62.517-139.636-139.636-139.636s-139.636 62.517-139.636 139.636c0 77.119 62.517 139.636 139.636 139.636s139.636-62.517 139.636-139.636zM1024 820.363c0-77.119-62.517-139.636-139.636-139.636s-139.636 62.517-139.636 139.636c0 77.119 62.517 139.636 139.636 139.636s139.636-62.517 139.636-139.636zM651.635 448c0-77.119-62.517-139.636-139.636-139.636s-139.636 62.517-139.636 139.636c0 77.119 62.517 139.636 139.636 139.636s139.636-62.517 139.636-139.636zM1024 448c0-77.119-62.517-139.636-139.636-139.636s-139.636 62.517-139.636 139.636c0 77.119 62.517 139.636 139.636 139.636s139.636-62.517 139.636-139.636zM279.272 75.637c0-77.119-62.517-139.636-139.636-139.636s-139.636 62.517-139.636 139.636c0 77.119 62.517 139.636 139.636 139.636s139.636-62.517 139.636-139.636zM651.635 75.637c0-77.119-62.517-139.636-139.636-139.636s-139.636 62.517-139.636 139.636c0 77.119 62.517 139.636 139.636 139.636s139.636-62.517 139.636-139.636zM1024 75.637c0-77.119-62.517-139.636-139.636-139.636s-139.636 62.517-139.636 139.636c0 77.119 62.517 139.636 139.636 139.636s139.636-62.517 139.636-139.636z" />
<glyph unicode="&#xe913;" glyph-name="download" d="M992 341.333h-64c-17.067 0-32-14.934-32-32v-213.333c0-17.067-14.934-32-32-32h-704c-17.067 0-32 14.934-32 32v213.333c0 17.067-14.934 32-32 32h-64c-17.067 0-32-14.934-32-32v-288c0-46.933 38.4-85.333 85.333-85.333h853.334c46.933 0 85.333 38.4 85.333 85.333v288c0 17.067-14.934 32-32 32zM490.667 200.533c12.8-12.8 32-12.8 44.8 0l288 288c12.8 12.8 12.8 32 0 44.8l-44.8 44.8c-12.8 12.8-32 12.8-44.8 0l-119.467-119.467c-12.8-12.8-36.267-4.266-36.267 14.934v454.4c-2.133 17.067-19.2 32-34.134 32h-64c-17.067 0-32-14.934-32-32v-452.267c0-19.2-23.467-27.733-36.267-14.934l-119.467 119.467c-12.8 12.8-32 12.8-44.8 0l-44.8-46.933c-12.8-12.8-12.8-32 0-44.8l288-288z" />
<glyph unicode="&#xe914;" glyph-name="edit" d="M989.305 838.045l-88.312 88.312c-33.643 33.643-86.209 33.643-117.749 0l-69.388-69.388c-8.411-8.411-8.411-21.026 0-29.437l178.727-178.727c8.411-8.411 21.026-8.411 29.437 0l69.388 69.388c31.54 33.643 31.54 86.209-2.102 119.852zM654.98 768.657c-8.411 8.411-21.026 8.411-29.437 0l-548.796-548.796-69.388-237.601c-6.308-23.13 14.719-46.259 37.848-39.95l239.704 67.285h-2.102l548.796 548.796c8.411 8.411 8.411 21.026 0 29.437l-176.624 180.83z" />
<glyph unicode="&#xe915;" glyph-name="edit_groups" d="M791.95 331.975c-4.257 4.257-12.773 4.257-17.031 0l-249.081-249.081-36.191-123.476c-4.257-12.773 8.516-23.418 21.289-21.289l125.605 36.191 249.081 249.081c4.257 4.257 4.257 12.773 0 17.031l-93.671 91.543zM1004.839 406.487l-46.836 46.836c-17.031 17.031-44.707 17.031-61.738 0 0 0-27.676-27.676-42.578-44.707-4.257-4.257-4.257-12.773 0-17.031l89.414-89.414c4.257-4.257 12.773-4.257 17.031 0 14.903 14.903 44.707 42.578 44.707 42.578 17.031 17.031 17.031 44.707 0 61.738zM506.678 710.919c0-46.836-12.773-91.543-38.32-129.863-8.516-12.773-4.257-31.933 10.644-40.449 46.836-23.418 100.058-53.223 129.863-104.316 4.257-8.516 14.903-10.644 23.418-10.644h59.609c38.32 0 63.867 25.547 63.867 65.996-2.129 59.609-61.738 95.8-125.605 123.476-44.707 19.16-51.094 36.191-51.094 55.351s12.773 36.191 27.676 51.094c25.547 23.418 40.449 57.48 40.449 97.93-2.129 76.64-46.836 140.507-125.605 140.507-46.836 0-83.027-23.418-102.187-57.48 53.223-40.449 87.284-108.574 87.284-191.601zM538.611 357.522c-2.129 68.124-70.254 97.93-142.636 129.863-48.964 21.289-57.48 40.449-57.48 61.738s12.773 42.578 29.804 57.48c29.804 27.676 44.707 65.996 44.707 110.703 0 83.027-48.964 155.41-138.378 155.41h-8.516c-89.414 0-138.378-72.383-138.378-155.41 0-44.707 14.903-83.027 44.707-110.703 17.031-14.903 29.804-36.191 29.804-57.48s-8.516-40.449-57.48-61.738c-72.383-31.933-140.507-63.867-142.636-129.863 4.257-44.707 36.191-78.77 78.77-78.77h383.202c42.578 0 74.511 34.063 74.511 78.77z" />
<glyph unicode="&#xe916;" glyph-name="edit_relationship" d="M874.667 106.666h-64v128h64c12.8 0 21.333 8.533 21.333 21.333v554.667c0 12.8-8.533 21.333-21.333 21.333h-554.667c-12.8 0-21.333-8.533-21.333-21.333v-64h-128v64c0 83.2 66.133 149.333 149.333 149.333h554.667c83.2 0 149.333-66.133 149.333-149.333v-554.667c0-83.2-66.133-149.333-149.333-149.333zM640 661.333h-554.667c-46.933 0-85.333-38.4-85.333-85.333v-554.667c0-46.933 38.4-85.333 85.333-85.333h554.667c46.933 0 85.333 38.4 85.333 85.333v554.667c0 46.933-38.4 85.333-85.333 85.333zM273.066 117.333c-4.266-4.266-6.4-4.266-10.667-6.4l-96-23.467c-8.533-2.133-17.067 6.4-14.934 14.934l23.467 96c0 2.133 2.133 4.266 4.266 8.533l2.133 2.133c2.133 2.133 8.533 2.133 10.667 0l78.934-78.934c4.266-6.4 4.266-12.8 2.133-12.8zM505.6 352l-196.267-198.4c-4.266-4.266-8.533-4.266-12.8 0l-78.934 78.934c-4.266 2.133-4.266 8.533 0 10.667l198.4 198.4c4.266 4.266 8.533 4.266 12.8 0l78.934-78.934c0-2.133 0-6.4-2.133-10.667zM565.334 411.733l-21.333-21.333c-4.266-4.266-8.533-4.266-12.8 0l-78.934 78.934c-4.266 4.266-4.266 8.533 0 12.8l21.333 21.333c14.934 14.934 36.267 14.934 51.201 0l42.667-42.667c12.8-14.934 12.8-36.267-2.133-49.066z" />
<glyph unicode="&#xe917;" glyph-name="email" d="M494.128 351.278c12.616-12.616 31.54-12.616 44.156 0l475.203 441.56c10.513 16.822 8.411 44.156-25.232 44.156l-941.996-2.102c-25.232 0-46.259-23.13-27.335-44.156l475.203-439.458zM1021.898 620.419c0 21.026-25.232 33.643-42.054 18.924l-372.173-342.736c-25.232-23.13-56.772-35.745-90.415-35.745s-65.183 12.616-90.415 33.643l-370.070 344.838c-16.822 14.719-42.054 4.205-42.054-18.924-2.102-94.62-2.102-351.146-2.102-477.306 0-46.259 37.848-84.107 84.107-84.107h841.068c46.259 0 84.107 37.848 84.107 84.107v477.306z" />
<glyph unicode="&#xe918;" glyph-name="fallback" d="M575.608 918.29l-62.566-304.489c0-12.513 8.342-18.77 18.77-18.77h325.344c22.941 0 37.54-27.112 27.112-47.967l-354.541-581.866c-14.599-29.197-58.395-18.77-58.395 14.599l62.566 358.713c0 12.513-10.428 8.342-22.941 8.342h-342.028c-22.941 0-39.625 33.369-27.112 54.224l375.397 531.812c14.599 27.112 58.395 18.77 58.395-14.599z" />
<glyph unicode="&#xe919;" glyph-name="filter" d="M977.839 909.639h-931.674c-29.377 0-46.164-35.672-27.279-58.754l409.181-476.328c12.59-14.689 20.983-35.672 20.983-54.557v-302.164c0-16.787 14.689-31.475 31.475-31.475h62.951c16.787 0 31.475 14.689 31.475 31.475v302.164c0 20.983 6.295 39.869 20.983 54.557l409.181 476.328c18.885 23.082 4.196 58.754-27.279 58.754z" />
<glyph unicode="&#xe91a;" glyph-name="flow" d="M966.899 737.31c-39.97 78.037-140.848 222.691-327.376 137.041-116.104-53.293-180.818-83.747-180.818-83.747l-167.494-72.327c-47.584-22.84-150.364 9.517-209.368 30.454-17.13 5.71-32.357-11.42-24.743-28.55 39.97-78.037 140.848-222.691 327.376-137.041 116.104 53.293 348.312 154.171 348.312 154.171 47.584 22.84 150.364-9.517 209.368-30.454 17.13-3.806 32.357 13.324 24.743 30.454zM565.292 493.681c-20.937-11.42-104.684-49.487-104.684-49.487l-83.747-36.163c-41.874-22.84-131.331 7.613-184.624 28.55-15.227 7.613-28.55-11.42-20.937-26.647 34.26-76.134 123.717-213.175 287.405-129.428 102.78 51.39 188.431 85.65 188.431 85.65 41.874 22.84 131.331-7.613 184.624-28.55 15.227-5.71 28.55 11.42 20.937 28.55-34.26 74.23-123.717 211.272-287.405 127.524zM504.386 156.789c-17.13-9.517-45.681-26.647-45.681-26.647-32.357-20.937-98.974 5.71-138.944 24.743-11.42 5.71-20.937-11.42-15.227-26.647 24.743-68.52 91.361-192.238 215.078-116.104 45.681 28.55 45.681 26.647 45.681 26.647 34.26 17.13 98.974-5.71 138.944-24.743 11.42-5.71 20.937 11.42 15.227 26.647-24.743 68.52-87.554 186.528-215.078 116.104z" />
<glyph unicode="&#xe91b;" glyph-name="follow" d="M993.281 202.235h-92.159v92.159c0 16.383-14.337 30.719-30.719 30.719h-61.44c-16.383 0-30.719-14.337-30.719-30.719v-92.159h-92.159c-16.383 0-30.719-14.337-30.719-30.719v-61.44c0-16.383 14.337-30.719 30.719-30.719h92.159v-92.159c0-16.383 14.337-30.719 30.719-30.719h61.44c16.383 0 30.719 14.337 30.719 30.719v92.159h92.159c16.383 0 30.719 14.337 30.719 30.719v61.44c0 16.383-14.337 30.719-30.719 30.719zM655.36 284.157h20.481c12.288 0 20.481 8.193 20.481 20.481v20.481c0 45.057 36.864 81.921 81.921 81.921h92.159c16.383 0 30.719 14.337 30.719 30.719v419.84c0 45.057-36.864 81.921-81.921 81.921h-737.279c-45.057 0-81.921-36.864-81.921-81.921v-737.279c0-45.057 36.864-81.921 81.921-81.921h460.799c18.432 0 32.769 14.337 30.719 32.769v131.073c0 45.057 36.864 81.921 81.921 81.921zM491.522 755.195c0 12.288 8.193 20.481 20.481 20.481h204.801c12.288 0 20.481-8.193 20.481-20.481v-40.959c0-12.288-8.193-20.481-20.481-20.481h-204.801c-12.288 0-20.481 8.193-20.481 20.481v40.959zM491.522 591.356c0 12.288 8.193 20.481 20.481 20.481h204.801c12.288 0 20.481-8.193 20.481-20.481v-40.959c0-12.288-8.193-20.481-20.481-20.481h-204.801c-12.288 0-20.481 8.193-20.481 20.481v40.959zM163.84 755.195c0 12.288 8.193 20.481 20.481 20.481h204.801c12.288 0 20.481-8.193 20.481-20.481v-204.801c0-12.288-8.193-20.481-20.481-20.481h-204.801c-12.288 0-20.481 8.193-20.481 20.481v204.801zM491.522 222.717c0-12.288-8.193-20.481-20.481-20.481h-286.718c-12.288 0-20.481 8.193-20.481 20.481v40.959c0 12.288 8.193 20.481 20.481 20.481h286.718c12.288 0 20.481-8.193 20.481-20.481v-40.959zM184.322 366.074c-12.288 0-20.481 8.193-20.481 20.481v40.959c0 12.288 8.193 20.481 20.481 20.481h409.598c12.288 0 20.481-8.193 20.481-20.481v-40.959c0-12.288-8.193-20.481-20.481-20.481h-409.598z" />
<glyph unicode="&#xe91c;" glyph-name="following" d="M1011.224 287.269l-46.835 46.835c-12.772 12.772-34.063 12.772-46.835 0l-200.116-204.374c-8.516-8.516-23.418-8.516-31.933 0l-93.671 95.8c-12.772 12.772-34.063 12.772-46.835 0l-46.835-46.835c-12.772-12.772-12.772-34.063 0-46.835l178.827-183.085c12.772-12.772 34.063-12.772 46.835 0l285.272 291.659c14.903 10.645 14.903 31.933 2.129 46.835zM483.258 283.012c21.288 21.288 46.835 34.063 76.639 38.32 36.192 2.129 70.254-8.516 95.8-34.063l46.835-51.094 153.281 157.538c17.031 17.031 38.32 29.804 61.738 34.063 10.645 2.129 17.031 10.645 17.031 21.288v425.778c0 46.835-38.32 85.155-85.155 85.155h-764.273c-46.835 0-85.155-38.32-85.155-85.155v-766.402c0-46.835 38.32-85.155 85.155-85.155h349.139c19.16 0 27.676 23.418 14.903 36.192l-10.645 10.645c-44.706 46.835-44.706 121.347 0 168.182l44.706 44.706zM510.934 768.399c0 12.772 8.516 21.288 21.288 21.288h212.89c12.772 0 21.288-8.516 21.288-21.288v-42.579c0-12.772-8.516-21.288-21.288-21.288h-212.89c-12.772 0-21.288 8.516-21.288 21.288v42.579zM510.934 598.088c0 12.772 8.516 21.288 21.288 21.288h212.89c12.772 0 21.288-8.516 21.288-21.288v-42.579c0-12.772-8.516-21.288-21.288-21.288h-212.89c-12.772 0-21.288 8.516-21.288 21.288v42.579zM170.311 768.399c0 12.772 8.516 21.288 21.288 21.288h212.89c12.772 0 21.288-8.516 21.288-21.288v-212.89c0-12.772-8.516-21.288-21.288-21.288h-212.89c-12.772 0-21.288 8.516-21.288 21.288v212.89zM340.623 214.887c0-12.772-8.516-21.288-19.16-21.288h-129.863c-10.645 0-19.16 8.516-19.16 21.288v42.579c0 12.772 8.516 21.288 19.16 21.288h129.863c10.645 0 19.16-8.516 19.16-21.288v-42.579zM191.6 363.91c-12.772 0-21.288 8.516-21.288 21.288v42.579c0 12.772 8.516 21.288 21.288 21.288h425.778c12.772 0 21.288-8.516 21.288-21.288v-42.579c0-12.772-8.516-21.288-21.288-21.288h-425.778z" />
<glyph unicode="&#xe91d;" glyph-name="freeze_user" d="M533.378 960c12.826 0 21.378-8.551 21.378-21.378v-981.244c0-12.826-8.551-21.378-21.378-21.378h-42.756c-12.826 0-21.378 8.551-21.378 21.378v981.244c0 12.826 8.551 21.378 21.378 21.378h42.756zM512 656.435l-173.161 173.161c-8.551 8.551-8.551 21.378 0 29.929l29.929 29.929c8.551 8.551 21.378 8.551 29.929 0l113.303-113.303 113.303 113.303c8.551 8.551 21.378 8.551 29.929 0l29.929-29.929c8.551-8.551 8.551-21.378 0-29.929l-173.161-173.161zM512 239.566l173.161-173.161c8.551-8.551 8.551-21.378 0-29.929l-29.929-29.929c-8.551-8.551-21.378-8.551-29.929 0l-113.303 113.303-113.303-113.303c-8.551-8.551-21.378-8.551-29.929 0l-29.929 29.929c-8.551 8.551-8.551 21.378 0 29.929l173.161 173.161zM963.073 690.64c6.414-10.689 4.275-23.516-8.551-29.929l-844.425-498.104c-10.689-6.414-23.516-4.275-29.929 8.551l-21.378 36.342c-6.414 10.689-4.275 23.516 8.551 29.929l844.425 500.241c10.689 6.414 23.516 4.275 29.929-8.551l21.378-38.48zM691.574 553.821l59.858 237.295c2.138 12.826 12.826 19.24 25.654 14.965l40.618-10.689c12.826-2.138 19.24-12.826 14.965-25.654l-40.618-156.059 156.059-40.618c12.826-2.138 19.24-12.826 14.965-25.654l-10.689-40.618c-2.138-12.826-12.826-19.24-25.654-14.965l-235.156 61.996zM332.426 342.18l-59.858-237.295c-2.138-12.826-12.826-19.24-25.654-14.965l-40.618 10.689c-12.826 2.138-19.24 12.826-14.965 25.654l40.618 156.059-156.059 40.618c-12.826 2.138-19.24 12.826-14.965 25.654l10.689 40.618c2.138 12.826 12.826 19.24 25.654 14.965l235.156-61.996zM82.305 726.982c6.414 10.689 19.24 14.965 29.929 8.551l844.425-500.241c10.689-6.414 14.965-19.24 8.551-29.929l-21.378-36.342c-6.414-10.689-19.24-14.965-29.929-8.551l-846.563 500.241c-10.689 6.414-14.965 19.24-8.551 29.929l23.516 36.342zM332.426 553.821l-237.295-61.996c-12.826-2.138-23.516 2.138-25.654 14.965l-10.689 40.618c-2.138 12.826 2.138 23.516 14.965 25.654l156.059 40.618-40.618 156.059c-2.138 12.826 2.138 23.516 14.965 25.654l40.618 10.689c12.826 2.138 23.516-2.138 25.654-14.965l61.996-237.295zM689.436 342.18l237.295 61.996c12.826 2.138 23.516-2.138 25.654-14.965l10.689-40.618c2.138-12.826-2.138-23.516-14.965-25.654l-156.059-40.618 40.618-156.059c2.138-12.826-2.138-23.516-14.965-25.654l-40.618-10.689c-12.826-2.138-23.516 2.138-25.654 14.965l-61.996 237.295z" />
<glyph unicode="&#xe91e;" glyph-name="goal" d="M67.703 951.537c-35.967 0-63.471-27.504-63.471-63.471v-888.595c0-33.852 27.504-63.471 63.471-63.471 33.852 0 63.471 27.504 63.471 63.471v888.595c0 35.967-27.504 63.471-63.471 63.471zM994.38 856.331c-275.041-143.868-492.959 103.669-753.19 8.463-12.694-4.231-25.389-16.926-25.389-31.735v-473.917c0-23.273 25.389-40.198 48.661-33.852 249.653 74.049 465.455-160.794 736.264-12.694 10.578 6.347 19.041 16.926 19.041 29.62v499.305c0 12.694-14.81 21.157-25.389 14.81zM935.14 376.067l-10.578-4.231c-21.157-10.578-55.008-12.694-112.132-12.694h-4.231v105.786c-31.735 0-88.86 6.347-126.942 14.81v-112.132c-35.967 6.347-69.819 12.694-97.323 19.041-10.578 2.115-21.157 6.347-29.62 8.463v116.364c-35.967 10.578-90.975 21.157-126.942 29.62v-120.595c-25.389 4.231-31.735 6.347-59.239 6.347-10.578 0-19.041 0-33.852-2.115l-33.852-2.115v122.71c21.157 4.231 46.545 4.231 74.049 4.231s29.62-2.115 52.893-6.347v126.942c-23.273 4.231-105.786 4.231-126.942-2.115v131.173l19.041 2.115c21.157 2.115 84.628-2.115 107.901-8.463v-122.71c29.62-6.347 80.397-16.926 118.479-27.504 2.115 0 6.347-2.115 8.463-2.115v122.71c38.082-10.578 82.512-23.273 126.942-29.62v-120.595c35.967-6.347 93.091-10.578 126.942-10.578v116.364h4.231c33.852 0 57.124 8.463 99.438 14.81l25.389 8.463v-126.942c-38.082-10.578-78.281-14.81-118.479-14.81h-8.463v-135.405h4.231c40.198 0 84.628 14.81 122.71 31.735v-120.595zM554.314 640.529v-126.942c8.463-2.115 16.926-4.231 25.389-8.463 31.735-8.463 65.587-19.041 101.554-25.389v131.173c-44.43 8.463-88.86 19.041-126.942 29.62z" />
<glyph unicode="&#xe91f;" glyph-name="google_news" d="M990.519 854.646l-70.892-70.892c-7.877-7.877-19.692-7.877-27.569 0l-90.585 90.585c-7.877 7.877-19.692 7.877-27.569 0l-70.892-70.892c-7.877-7.877-19.692-7.877-27.569 0l-70.892 70.892c-7.877 7.877-19.692 7.877-27.569 0l-70.892-70.892c-7.877-7.877-19.692-7.877-27.569 0l-70.892 70.892c-7.877 7.877-19.692 7.877-27.569 0l-70.892-70.892c-7.877-7.877-19.692-7.877-27.569 0l-70.892 70.892c-7.877 7.877-19.692 7.877-27.569 0l-70.892-70.892c-7.877-7.877-19.692-7.877-27.569 0l-51.2 51.2c-11.815 11.815-33.477 3.938-33.477-13.785v-748.308c0-43.323 35.446-78.769 78.769-78.769h866.462c43.323 0 78.769 35.446 78.769 78.769v748.308c0 17.723-21.662 25.6-33.477 13.785zM413.534 151.63c0-11.815-7.877-19.692-19.692-19.692h-236.308c-11.815 0-19.692 7.877-19.692 19.692v354.462c0 11.815 7.877 19.692 19.692 19.692h236.308c11.815 0 19.692-7.877 19.692-19.692v-354.462zM886.15 151.63c0-11.815-7.877-19.692-19.692-19.692h-354.462c-11.815 0-19.692 7.877-19.692 19.692v39.385c0 11.815 7.877 19.692 19.692 19.692h354.462c11.815 0 19.692-7.877 19.692-19.692v-39.385zM886.15 289.477h-393.846v78.769h393.846v-78.769zM886.15 466.707c0-11.815-7.877-19.692-19.692-19.692h-354.462c-11.815 0-19.692 7.877-19.692 19.692v39.385c0 11.815 7.877 19.692 19.692 19.692h354.462c11.815 0 19.692-7.877 19.692-19.692v-39.385zM886.15 624.246c0-11.815-7.877-19.692-19.692-19.692h-708.923c-11.815 0-19.692 7.877-19.692 19.692v39.385c0 11.815 7.877 19.692 19.692 19.692h708.923c11.815 0 19.692-7.877 19.692-19.692v-39.385z" />
<glyph unicode="&#xe920;" glyph-name="info" d="M512 960c-283.734 0-512-228.267-512-512s228.267-512 512-512 512 228.267 512 512-228.267 512-512 512zM512 701.866c36.267 0 64-27.733 64-64s-27.733-64-64-64-64 27.733-64 64 27.733 64 64 64zM618.667 253.867c0-10.667-8.533-19.2-21.333-19.2h-170.666c-10.667 0-21.333 6.4-21.333 19.2v42.667c0 10.667 8.533 23.467 21.333 23.467 10.667 0 21.333 6.4 21.333 19.2v85.333c0 10.667-8.533 23.467-21.333 23.467-10.667 0-21.333 6.4-21.333 19.2v42.667c0 10.667 8.533 23.467 21.333 23.467h128c10.667 0 21.333-10.667 21.333-23.467v-170.666c0-10.667 8.533-19.2 21.333-19.2 10.667 0 21.333-10.667 21.333-23.467v-42.667z" />
<glyph unicode="&#xe921;" glyph-name="join_group" d="M725.955 450.127c-2.129 59.609-59.609 95.8-121.347 123.476-42.578 19.16-51.094 36.191-51.094 55.351s12.773 36.191 25.547 51.094c27.676 23.418 40.449 57.48 40.449 97.93 0 74.511-42.578 138.378-121.347 138.378-46.836 0-78.77-23.418-100.058-57.48 53.223-40.449 85.156-110.703 85.156-191.601 0-46.836-12.773-91.543-36.191-129.863-8.516-12.773-4.257-31.933 10.644-40.449 44.707-23.418 95.8-53.223 125.605-104.316 4.257-8.516 12.773-10.644 23.418-10.644h57.48c36.191 2.129 61.738 27.676 61.738 68.124zM378.945 445.869c-48.964 21.289-55.351 40.449-55.351 61.738s12.773 42.578 29.804 57.48c27.676 27.676 42.578 65.996 42.578 110.703 0 83.027-48.964 155.41-134.121 155.41h-6.387c-85.156 0-134.121-72.383-134.121-155.41 0-44.707 14.903-83.027 42.578-110.703 17.031-14.903 29.804-36.191 29.804-57.48s-6.387-40.449-55.351-61.738c-70.254-31.933-136.25-63.867-138.378-129.863 2.129-46.836 34.063-80.898 74.511-80.898h370.428c40.449 0 72.383 34.063 72.383 78.77-2.129 68.124-70.254 100.058-138.378 131.991zM992.068 235.109h-95.8v95.8c0 17.031-14.903 31.933-31.933 31.933h-63.867c-17.031 0-31.933-14.903-31.933-31.933v-95.8h-95.8c-17.031 0-31.933-14.903-31.933-31.933v-63.867c0-17.031 14.903-31.933 31.933-31.933h95.8v-95.8c0-17.031 14.903-31.933 31.933-31.933h63.867c17.031 0 31.933 14.903 31.933 31.933v95.8h95.8c17.031 0 31.933 14.903 31.933 31.933v63.867c0 17.031-14.903 31.933-31.933 31.933z" />
<glyph unicode="&#xe922;" glyph-name="lead_convert" d="M539.706 394.809c-13.298-13.298-13.298-33.246 0-46.546l46.546-46.546c13.298-13.298 33.246-13.298 46.546 0l299.22 299.22c13.298 13.298 13.298 33.246 0 46.546l-297.004 299.22c-13.298 13.298-33.246 13.298-46.546 0l-46.546-46.546c-13.298-13.298-13.298-33.246 0-46.546l126.337-124.121c35.464-39.896-22.164-37.68-22.164-37.68h-177.315c-210.563-2.216-390.095-175.099-385.662-385.662 4.432-203.913 170.667-370.148 376.796-370.148h77.576c17.732 0 33.246 15.516 33.246 33.246v66.494c0 17.732-15.516 33.246-33.246 33.246h-70.926c-126.337 0-237.16 93.091-250.459 219.429-13.298 146.285 101.957 268.19 243.809 268.19h190.615c15.516-4.432 22.164-24.381 11.082-37.68l-121.905-124.121z" />
<glyph unicode="&#xe923;" glyph-name="leave_group" d="M605.478 509.61c-42.49 19.12-50.988 36.116-50.988 55.236s12.746 36.116 25.494 50.988c25.494 23.37 38.24 57.361 38.24 97.726 2.124 74.357-40.365 138.091-118.971 138.091-46.738 0-78.606-23.37-99.851-57.361 53.112-40.365 84.979-110.473 84.979-191.203 0-46.738-12.746-91.353-36.116-129.593-8.498-12.746-4.248-31.867 10.622-40.365 44.614-23.37 95.601-53.112 125.345-104.099 4.248-8.498 12.746-10.622 23.37-10.622h57.361c36.116 0 61.61 25.494 61.61 65.859-2.124 61.61-59.485 97.726-121.095 125.345zM380.282 382.141c-48.863 21.244-55.236 40.365-55.236 61.61s12.746 42.49 29.742 57.361c27.618 27.618 42.49 65.859 42.49 110.473 0 82.855-48.863 155.087-133.843 155.087h-8.498c-84.979 0-133.843-72.232-133.843-155.087 0-44.614 14.872-82.855 42.49-110.473 16.996-14.872 29.742-36.116 29.742-57.361s-6.374-40.365-55.236-61.61c-70.108-31.867-135.967-63.734-138.091-129.593 4.248-46.738 36.116-80.73 76.481-80.73h369.659c40.365 0 72.232 33.992 72.232 78.606-2.124 67.983-70.108 99.851-138.091 131.717zM641.594 76.216v63.734c0 16.996 14.872 31.867 31.867 31.867h318.672c16.996 0 31.867-14.872 31.867-31.867v-63.734c0-16.996-14.872-31.867-31.867-31.867h-318.672c-16.996 0-31.867 14.872-31.867 31.867z" />
<glyph unicode="&#xe924;" glyph-name="log_a_call" d="M883.199 959.996h-644.266c-57.6 0-104.533-51.2-104.533-102.4v-34.134h-34.134c-38.4 0-68.266-29.866-68.266-68.266s29.866-68.266 68.266-68.266h34.134v-170.666h-34.134c-38.4 0-68.266-29.866-68.266-68.266s29.866-68.266 68.266-68.266h34.134v-170.666h-34.134c-38.4 0-68.266-29.866-68.266-68.266s29.866-68.266 68.266-68.266h34.134v-34.134c0-51.2 46.933-102.4 104.533-102.4h644.266c57.6 0 108.8 51.2 108.8 106.667v819.199c0 57.6-51.2 98.134-108.8 98.134zM821.332 273.064l-46.933-46.933c-10.666-10.666-25.6-17.067-38.4-14.934-113.066 6.4-219.733 57.6-294.4 132.266s-125.867 181.334-132.266 294.4c0 14.934 4.266 29.866 14.934 38.4l46.933 46.933c21.333 21.333 59.733 21.333 78.934-4.266l44.8-55.467c14.934-19.2 14.934-44.8 2.133-64l-38.4-55.467c-4.266-6.4-4.266-17.067 2.133-21.333l78.934-87.466 87.466-78.934c6.4-6.4 14.934-6.4 21.333-2.133l53.334 38.4c19.2 12.8 46.933 12.8 66.133-2.133l55.467-44.8c19.2-12.8 21.333-51.2-2.133-72.533z" />
<glyph unicode="&#xe925;" glyph-name="log_event" d="M737.195 146.325l-101.975-33.992c-8.498-2.124-19.12-4.248-27.618-4.248-29.742 0-59.485 14.872-78.606 38.24s-23.37 57.361-16.996 87.103l33.992 121.095 159.336 159.336c6.374 6.374 2.124 19.12-8.498 19.12h-664.963c-16.996 0-31.867-14.872-31.867-31.867v-393.029c0-46.738 38.24-84.979 84.979-84.979h594.856c46.738 0 84.979 38.24 84.979 84.979v16.996c0 14.872-14.872 25.494-27.618 21.244zM31.868 617.959h701.079c16.996 0 31.867 14.872 31.867 31.867v53.112c0 46.738-38.24 84.979-84.979 84.979h-63.734v21.244c0 33.992-27.618 63.734-63.734 63.734-33.992 0-63.734-27.618-63.734-63.734v-21.244h-212.448v21.244c0 33.992-27.618 63.734-63.734 63.734-33.992 0-63.734-27.618-63.734-63.734v-21.244h-63.734c-46.738 0-84.979-38.24-84.979-84.979v-53.112c0-16.996 14.872-31.867 31.867-31.867zM839.169 509.611c-4.248 4.248-10.622 4.248-14.872 0l-199.701-199.701-29.742-99.851c-2.124-10.622 6.374-19.12 16.996-16.996l99.851 29.742 199.701 199.701c4.248 4.248 4.248 10.622 0 14.872l-72.232 72.232zM1009.128 571.22l-38.24 38.24c-12.746 12.746-36.116 12.746-50.988 0 0 0-23.37-23.37-33.992-36.116-4.248-4.248-4.248-10.622 0-14.872l72.232-72.232c4.248-4.248 10.622-4.248 14.872 0 12.746 12.746 36.116 33.992 36.116 33.992 14.872 12.746 14.872 36.116 0 50.988z" />
<glyph unicode="&#xe926;" glyph-name="manage_perm_sets" d="M917.333 960h-810.666c-59.733 0-106.667-46.933-106.667-106.667v-810.666c0-57.6 46.933-106.667 106.667-106.667h810.666c57.6 0 106.667 46.933 106.667 106.667v810.666c0 59.733-46.933 106.667-106.667 106.667zM883.199 42.668h-742.399c-19.2 0-34.134 14.934-34.134 34.134v742.399c0 19.2 14.934 34.134 34.134 34.134h742.399c19.2 0 34.134-14.934 34.134-34.134v-742.399c0-19.2-14.934-34.134-34.134-34.134zM424.534 748.801h-177.066c-19.2 0-36.267-14.934-36.267-36.267v-177.066c0-19.2 14.934-36.267 36.267-36.267h177.066c19.2 0 36.267 14.934 36.267 36.267v177.066c-2.133 19.2-17.067 36.267-36.267 36.267zM776.533 748.801h-177.066c-19.2 0-36.267-14.934-36.267-36.267v-177.066c0-19.2 14.934-36.267 36.267-36.267h177.066c19.2 0 36.267 14.934 36.267 36.267v177.066c0 19.2-17.067 36.267-36.267 36.267zM424.534 394.667h-177.066c-19.2 0-36.267-14.934-36.267-36.267v-177.066c0-19.2 14.934-36.267 36.267-36.267h177.066c19.2 0 36.267 14.934 36.267 36.267v177.066c-2.133 21.333-17.067 36.267-36.267 36.267zM776.533 394.667h-177.066c-19.2 0-36.267-14.934-36.267-36.267v-177.066c0-19.2 14.934-36.267 36.267-36.267h177.066c19.2 0 36.267 14.934 36.267 36.267v177.066c0 21.333-17.067 36.267-36.267 36.267z" />
<glyph unicode="&#xe927;" glyph-name="map" d="M997.388 798.203l-306.561 153.281c-14.903 6.387-31.933 6.387-44.707 0l-283.143-142.636-285.272 142.636c-17.031 8.516-38.32 8.516-53.223-2.129-14.903-8.516-23.418-25.547-23.418-42.578v-766.402c0-19.16 10.644-36.191 27.676-44.707l306.561-153.281c14.903-6.387 31.933-6.387 44.707 0l285.272 142.636 283.143-142.636c6.387-4.257 14.903-6.387 23.418-6.387s19.16 2.129 27.676 8.516c14.903 8.516 23.418 25.547 23.418 42.578v766.402c0 19.16-8.516 36.191-25.547 44.707zM916.489 700.273v-404.49c0-23.418-21.289-40.449-42.578-31.933-78.77 29.804-14.903 161.797-72.383 234.178-53.223 65.996-121.347-2.129-187.342 102.187-61.738 100.058 21.289 172.441 97.93 210.761 10.644 4.257 21.289 4.257 29.804 0l157.538-78.77c12.773-6.387 17.031-19.16 17.031-31.933zM488.581 108.44c-12.773-6.387-27.676-4.257-38.32 4.257-21.289 19.16-38.32 48.964-38.32 78.77 0 51.094-85.156 34.063-85.156 136.25 0 83.027-97.93 104.316-180.957 95.8-21.289-2.129-36.191 12.773-36.191 34.063v310.819c0 25.547 25.547 42.578 46.836 29.804l183.085-91.543c2.129 0 4.257-2.129 4.257-2.129l6.387-4.257c76.64-44.707 61.738-80.898 29.804-136.25-36.191-61.738-51.094 0-102.187 17.031s-102.187-17.031-85.156-51.094 68.124 0 102.187-34.063 34.063-85.156 136.25-51.094 119.218 17.031 153.281-17.031c34.063-34.063 51.094-102.187 0-153.281-29.804-29.804-42.578-93.671-55.351-136.25-2.129-8.516-8.516-17.031-17.031-21.289l-23.418-8.516z" />
<glyph unicode="&#xe928;" glyph-name="more" d="M128 576c70.4 0 128-57.6 128-128s-57.6-128-128-128-128 57.6-128 128 57.6 128 128 128zM512 576c70.4 0 128-57.6 128-128s-57.6-128-128-128-128 57.6-128 128 57.6 128 128 128zM896 576c70.4 0 128-57.6 128-128s-57.6-128-128-128-128 57.6-128 128 57.6 128 128 128z" />
<glyph unicode="&#xe929;" glyph-name="new" d="M605.090 378.182h384.001c18.618 0 34.909 16.291 34.909 34.909v69.818c0 18.618-16.291 34.909-34.909 34.909h-384.001c-13.963 0-23.272 9.309-23.272 23.272v384.001c0 18.618-16.291 34.909-34.909 34.909h-69.818c-18.618 0-34.909-16.291-34.909-34.909v-384.001c0-13.963-9.309-23.272-23.272-23.272h-384.001c-18.618 0-34.909-16.291-34.909-34.909v-69.818c0-18.618 16.291-34.909 34.909-34.909h384.001c13.963 0 23.272-9.309 23.272-23.272v-384.001c0-18.618 16.291-34.909 34.909-34.909h69.818c18.618 0 34.909 16.291 34.909 34.909v384.001c0 13.963 9.309 23.272 23.272 23.272z" />
<glyph unicode="&#xe92a;" glyph-name="new_account" d="M1021.87 428.84c2.129 36.191-25.547 46.836-36.191 46.836h-383.202c-34.063 0-38.32-36.191-38.32-38.32v-415.135h457.714v406.619zM757.888 130.795c0-19.16-14.903-36.191-36.191-36.191h-36.191c-19.16 0-36.191 17.031-36.191 36.191v36.191c0 19.16 14.903 36.191 36.191 36.191h36.191c19.16 0 36.191-17.031 36.191-36.191v-36.191zM757.888 311.75c0-19.16-14.903-36.191-36.191-36.191h-36.191c-19.16 0-36.191 17.031-36.191 36.191v36.191c0 19.16 14.903 36.191 36.191 36.191h36.191c19.16 0 36.191-17.031 36.191-36.191v-36.191zM934.587 130.795c0-19.16-14.903-36.191-36.191-36.191h-36.191c-19.16 0-36.191 17.031-36.191 36.191v36.191c0 19.16 14.903 36.191 36.191 36.191h36.191c19.16 0 36.191-17.031 36.191-36.191v-36.191zM934.587 311.75c0-19.16-14.903-36.191-36.191-36.191h-36.191c-19.16 0-36.191 17.031-36.191 36.191v36.191c0 19.16 14.903 36.191 36.191 36.191h36.191c19.16 0 36.191-17.031 36.191-36.191v-36.191zM668.474 620.441v206.503c2.129 36.191-23.418 46.836-34.063 46.836h-596.091c-34.063 0-38.32-36.191-38.32-38.32v-813.238h457.714v519.45s0 42.578 38.32 42.578h138.378c21.289 0 34.063 21.289 34.063 36.191zM193.731 147.825c0-19.16-14.903-36.191-36.191-36.191h-34.063c-19.16 0-36.191 17.031-36.191 36.191v36.191c0 19.16 14.903 36.191 36.191 36.191h36.191c19.16 0 36.191-17.031 36.191-36.191v-36.191zM193.731 330.91c0-19.16-14.903-36.191-36.191-36.191h-34.063c-19.16 0-36.191 17.031-36.191 36.191v36.191c0 19.16 14.903 36.191 36.191 36.191h36.191c19.16 0 36.191-17.031 36.191-36.191v-36.191zM193.731 511.867c0-19.16-14.903-36.191-36.191-36.191h-34.063c-19.16 0-36.191 17.031-36.191 36.191v36.191c0 19.16 14.903 36.191 36.191 36.191h36.191c19.16 0 36.191-17.031 36.191-36.191v-36.191zM193.731 692.824c0-19.16-14.903-36.191-36.191-36.191h-34.063c-19.16 0-36.191 17.031-36.191 36.191v36.191c0 19.16 14.903 36.191 36.191 36.191h36.191c19.16 0 36.191-17.031 36.191-36.191v-36.191zM387.46 147.825c0-19.16-14.903-36.191-36.191-36.191h-36.191c-19.16 0-36.191 17.031-36.191 36.191v36.191c0 19.16 14.903 36.191 36.191 36.191h36.191c19.16 0 36.191-17.031 36.191-36.191v-36.191zM387.46 330.91c0-19.16-14.903-36.191-36.191-36.191h-36.191c-19.16 0-36.191 17.031-36.191 36.191v36.191c0 19.16 14.903 36.191 36.191 36.191h36.191c19.16 0 36.191-17.031 36.191-36.191v-36.191zM387.46 511.867c0-19.16-14.903-36.191-36.191-36.191h-36.191c-19.16 0-36.191 17.031-36.191 36.191v36.191c0 19.16 14.903 36.191 36.191 36.191h36.191c19.16 0 36.191-17.031 36.191-36.191v-36.191zM387.46 692.824c0-19.16-14.903-36.191-36.191-36.191h-36.191c-19.16 0-36.191 17.031-36.191 36.191v36.191c0 19.16 14.903 36.191 36.191 36.191h36.191c19.16 0 36.191-17.031 36.191-36.191v-36.191zM581.19 692.824c0-19.16-14.903-36.191-36.191-36.191h-34.063c-19.16 0-36.191 17.031-36.191 36.191v36.191c0 19.16 14.903 36.191 36.191 36.191h36.191c19.16 0 36.191-17.031 36.191-36.191v-36.191z" />
<glyph unicode="&#xe92b;" glyph-name="new_campaign" d="M512 960c-281.6 0-512-230.4-512-512s230.4-512 512-512 512 230.4 512 512-230.4 512-512 512zM512 63.999c-211.2 0-384.001 172.8-384.001 384.001s172.8 384.001 384.001 384.001 384.001-172.8 384.001-384.001-172.8-384.001-384.001-384.001zM512 746.667c-164.267 0-298.667-134.401-298.667-298.667s134.401-298.667 298.667-298.667 298.667 134.401 298.667 298.667-134.401 298.667-298.667 298.667zM512 277.334c-93.867 0-170.666 76.8-170.666 170.666s76.8 170.666 170.666 170.666 170.666-76.8 170.666-170.666-76.8-170.666-170.666-170.666zM512 533.333c-46.933 0-85.333-38.4-85.333-85.333s38.4-85.333 85.333-85.333 85.333 38.4 85.333 85.333-38.4 85.333-85.333 85.333z" />
<glyph unicode="&#xe92c;" glyph-name="new_case" d="M277.334 725.333h85.333c12.8 0 21.333 8.533 21.333 21.333v42.667h256.001v-42.667c0-12.8 8.533-21.333 21.333-21.333h85.333c12.8 0 21.333 8.533 21.333 21.333v53.334c0 64-53.334 117.334-117.334 117.334h-279.467c-64 0-115.2-51.201-115.2-115.2v-55.467c0-12.8 8.533-21.333 21.333-21.333zM938.667 639.999h-853.334c-46.933 0-85.333-38.4-85.333-85.333v-490.667c0-46.933 38.4-85.333 85.333-85.333h853.334c46.933 0 85.333 38.4 85.333 85.333v490.667c0 46.933-38.4 85.333-85.333 85.333z" />
<glyph unicode="&#xe92d;" glyph-name="new_child_case" d="M277.333 767.999h85.333c12.8 0 21.333 8.533 21.333 21.333v42.667h213.333v-42.667c0-12.8 8.533-21.333 21.333-21.333h85.333c12.8 0 21.333 8.533 21.333 21.333v53.334c0 64-53.334 117.334-117.334 117.334h-236.801c-64 0-115.2-51.201-115.2-115.2v-55.467c0-12.8 8.533-21.333 21.333-21.333zM639.999 277.333h42.667v42.667c0 46.933 38.4 85.333 85.333 85.333h128c27.733 0 51.201-12.8 66.133-32 6.4-8.533 19.2-2.133 19.2 6.4v217.601c0 46.933-38.4 85.333-85.333 85.333h-810.665c-46.933 0-85.333-38.4-85.333-85.333v-490.666c0-46.933 38.4-85.333 85.333-85.333h465.066c8.533 0 12.8 6.4 10.667 14.934-4.266 8.533-6.4 17.067-6.4 27.733v128c0 46.933 38.4 85.333 85.333 85.333zM991.998 192h-96v96c0 17.067-14.934 32-32 32h-64c-17.067 0-32-14.934-32-32v-96h-96c-17.067 0-32-14.934-32-32v-64c0-17.067 14.934-32 32-32h96v-96c0-17.067 14.934-32 32-32h64c17.067 0 32 14.934 32 32v96h96c17.067 0 32 14.934 32 32v64c0 17.067-14.934 32-32 32z" />
<glyph unicode="&#xe92e;" glyph-name="new_contact" d="M921.6 796.16h-819.2c-55.296 0-102.4-45.056-102.4-102.4v-491.519c0-55.296 47.104-102.4 102.4-102.4h819.2c57.343 0 102.4 45.056 102.4 102.4v491.519c0 57.343-45.056 102.4-102.4 102.4zM487.424 218.624h-294.912c-32.768 0-57.343 34.816-57.343 69.632 2.048 51.2 55.296 81.92 110.591 106.496 38.912 16.384 45.056 32.768 45.056 49.152s-10.24 32.768-24.576 45.056c-22.528 20.48-34.816 51.2-34.816 83.967 0 65.536 38.912 118.784 106.496 118.784s106.496-55.296 106.496-118.784c0-34.816-12.288-65.536-34.816-83.967-14.336-12.288-24.576-26.624-24.576-45.056 0-16.384 4.096-32.768 45.056-47.104 55.296-24.576 108.544-57.343 110.591-108.544 6.144-34.816-20.48-69.632-53.248-69.632zM886.784 337.409c0-18.432-16.384-34.816-34.816-34.816h-153.6c-18.432 0-34.816 14.336-34.816 34.816v51.2c0 18.432 16.384 34.816 34.816 34.816h153.6c18.432 0 34.816-14.336 34.816-34.816v-51.2zM886.784 523.776c0-18.432-16.384-34.816-34.816-34.816h-253.952c-18.432 0-34.816 14.336-34.816 34.816v51.2c0 18.432 16.384 34.816 34.816 34.816h256c18.432 0 34.816-14.336 34.816-34.816v-51.2z" />
<glyph unicode="&#xe92f;" glyph-name="new_custom1" d="M581.957 57.665c-38.526-40.555-101.386-40.555-139.913 0-117.607 123.691-340.657 358.907-340.657 360.934-101.386 103.414-101.386 275.769 0 381.211 48.666 50.693 113.552 79.081 182.495 79.081s133.829-26.36 182.495-79.081l20.277-24.333c12.166-16.222 38.526-16.222 52.721 0l16.222 20.277 2.027 2.027c50.693 52.721 115.58 81.109 182.495 81.109 68.943 0 133.829-26.36 182.495-79.081 101.386-103.414 101.386-275.769 0-381.211 0-2.027-221.021-237.243-340.657-360.934z" />
<glyph unicode="&#xe930;" glyph-name="new_custom2" d="M658 898c-48 32-222 62-288-48-32-52 6-146 36-206 8-14 24-22 40-16 20 8 44 12 70 12 16 0 32-2 48-6 14-4 28 4 36 16 12 20 30 44 62 70 76 66 44 146-4 178zM574 266c-20-6-40-10-62-10-20 0-38 4-56 8-14 4-30-4-36-16-12-20-30-46-62-72-80-64-48-146 0-178s224-62 288 48c30 52-4 144-34 204-8 14-24 20-38 16zM914 594c-52 32-146-6-206-36-14-8-22-24-16-40 8-20 12-44 12-70 0-16-2-32-6-48-4-14 4-28 16-36 20-12 44-30 70-62 64-80 144-48 176 0s64 226-46 292zM330 388c-6 20-10 40-10 62 0 20 4 38 8 56 4 14-4 30-16 36-20 12-46 30-72 62-64 80-146 48-178 0s-62-222 48-288c52-30 144 4 204 34 14 8 20 24 16 38zM608 448c0-53.020-42.98-96-96-96s-96 42.98-96 96c0 53.020 42.98 96 96 96s96-42.98 96-96z" />
<glyph unicode="&#xe931;" glyph-name="new_custom3" d="M512 653.439c-112.831 0-204.374-91.543-204.374-204.374s91.543-204.374 204.374-204.374 204.374 91.543 204.374 204.374-91.543 204.374-204.374 204.374zM1022.935 449.065c0 59.609-142.636 89.414-166.054 142.636-21.289 55.351 57.48 176.698 17.031 219.277s-163.925-38.32-217.148-14.903c-55.351 21.289-85.156 163.925-144.765 163.925s-89.414-142.636-142.636-166.054c-55.351-21.289-176.698 57.48-219.277 17.031s38.32-163.925 14.903-217.148c-21.289-55.351-163.925-85.156-163.925-144.765s142.636-89.414 166.054-142.636c21.289-55.351-57.48-176.698-17.031-219.277 40.449-40.449 163.925 38.32 217.148 14.903 53.223-21.289 83.027-166.054 142.636-166.054s89.414 142.636 142.636 166.054c55.351 21.289 176.698-55.351 217.148-14.903s-38.32 163.925-14.903 217.148c25.547 55.351 168.183 85.156 168.183 144.765zM512 142.504c-168.183 0-306.561 138.378-306.561 306.561s138.378 306.561 306.561 306.561 306.561-138.378 306.561-306.561-138.378-306.561-306.561-306.561z" />
<glyph unicode="&#xe932;" glyph-name="new_custom4" d="M101.553 739.966l357.554 200.992c31.735 19.041 74.049 19.041 107.901 0l357.554-200.992c31.735-19.041 52.893-55.008 52.893-90.975v-401.983c0-38.082-19.041-71.934-52.893-90.975l-357.554-200.992c-31.735-19.041-74.049-19.041-107.901 0l-357.554 200.992c-31.735 19.041-55.008 52.893-55.008 90.975v401.983c0 38.082 23.273 71.934 55.008 90.975z" />
<glyph unicode="&#xe933;" glyph-name="new_custom5" d="M1001.014 860.735c-171.363 64.784-369.894 79.412-545.438 22.988-154.645-50.156-313.47-165.094-336.457-336.457-4.179-35.527-4.179-75.232 4.179-108.669 4.179-18.808 10.449-35.527 16.719-54.335 4.179-10.449 6.27-18.808 12.538-27.167-6.27-10.449-12.538-20.898-20.898-29.257-48.065-75.232-81.502-160.915-102.4-246.596-8.359-35.527-29.257-89.861 10.449-114.939 14.629-10.449 37.616-10.449 52.245-2.090 20.898 12.538 22.988 31.346 27.167 52.245 14.629 87.772 45.975 175.542 94.040 250.776 22.988 35.527 48.065 73.143 77.323 106.58 25.078 27.167 62.694 77.323 104.49 62.694s39.706-62.694 12.538-87.772-52.245-52.245-52.245-91.951c0-29.257 12.538-60.604 37.616-79.412 33.437-27.167 100.31-33.437 140.016-29.257 87.772 4.179 160.915 31.346 231.968 83.592 94.040 64.784 129.567 177.633 148.375 284.212 12.538 66.873 20.898 131.658 43.886 194.351 10.449 27.167 22.988 52.245 37.616 75.232 6.27 12.538 20.898 25.078 22.988 37.616 6.27 18.808-4.179 33.437-16.719 37.616z" />
<glyph unicode="&#xe934;" glyph-name="new_custom6" d="M511.999 10.322h-429.419c-51.613 0-82.58 55.742-55.742 101.161l427.355 732.903c24.774 43.355 86.71 43.355 113.549 0l429.419-734.967c26.839-45.419-6.194-101.161-55.742-101.161h-429.419z" />
<glyph unicode="&#xe935;" glyph-name="new_custom7" d="M108.8-64c-59.733 0-108.8 49.066-108.8 108.8v806.4c0 59.733 49.066 108.8 108.8 108.8h804.267c61.867 0 110.933-49.066 110.933-108.8v-804.267c0-59.733-49.066-108.8-108.8-108.8h-806.4z" />
<glyph unicode="&#xe936;" glyph-name="new_custom8" d="M463.638 932.665l-397.405-437.355c-23.13-25.232-23.13-65.183 0-90.415l397.405-439.458c27.335-29.437 71.491-29.437 96.723 0l397.405 437.355c23.13 25.232 23.13 65.183 0 90.415l-397.405 439.458c-25.232 27.335-71.491 27.335-96.723 0z" />
<glyph unicode="&#xe937;" glyph-name="new_custom9" d="M963.168 624.412c-46.637 192.634-249.409 310.241-472.459 310.241-271.715 0-490.709-216.967-490.709-486.653s218.994-486.653 490.709-486.653c377.156 0 346.74 190.606 227.105 265.631-70.97 44.61-109.496 148.024-38.526 221.022 131.802 135.857 344.712-81.109 283.881 176.412zM223.050 285.783c-56.776 0-101.387 44.61-101.387 101.387s44.61 101.387 101.387 101.387 101.387-44.61 101.387-101.387-44.61-101.387-101.387-101.387zM243.327 671.049c0 56.776 44.61 101.387 101.387 101.387s101.387-44.61 101.387-101.387-44.61-101.387-101.387-101.387-101.387 44.61-101.387 101.387zM466.377 83.010c-56.776 0-101.387 44.61-101.387 101.387s44.61 101.387 101.387 101.387 101.387-44.61 101.387-101.387-44.61-101.387-101.387-101.387zM648.871 610.217c-56.776 0-101.387 44.61-101.387 101.387s44.61 101.387 101.387 101.387 101.387-44.61 101.387-101.387-44.61-101.387-101.387-101.387z" />
<glyph unicode="&#xe938;" glyph-name="new_custom10" d="M933.646-1.688c-157.858-62.312-407.107-45.696-542.117 99.7-328.178 351.026-41.542 861.988 353.103 861.988 66.466 0 128.779-12.462 189.014-37.387 24.925-10.385 27.002-43.619 6.232-58.158-126.702-89.314-211.862-236.787-211.862-402.953 0-168.244 83.083-315.716 209.785-405.030 22.848-14.54 18.694-47.772-4.154-58.158z" />
<glyph unicode="&#xe939;" glyph-name="new_custom11" d="M548.496 927.675l133.475-281.548 296.147-45.882c33.369-4.171 45.882-47.967 20.855-70.909l-214.811-221.067 50.054-308.66c4.171-35.454-29.197-62.566-58.395-45.882l-264.864 145.988-264.864-145.988c-29.197-16.685-64.652 10.428-58.395 45.882l50.054 308.66-214.811 221.067c-22.941 25.027-10.428 66.737 20.855 70.909l296.147 45.882 133.475 281.548c16.685 31.283 60.481 31.283 75.079 0z" />
<glyph unicode="&#xe93a;" glyph-name="new_custom12" d="M1024 448c0-282.77-229.23-512-512-512s-512 229.23-512 512c0 282.77 229.23 512 512 512s512-229.23 512-512z" />
<glyph unicode="&#xe93b;" glyph-name="new_custom13" d="M921.599 917.334h-819.199c-55.467 0-102.4-44.8-102.4-100.267v-100.267c0-19.2 14.934-34.134 34.134-34.134h955.732c19.2 0 34.134 14.934 34.134 34.134v100.267c0 55.467-46.933 100.267-102.4 100.267zM921.599 582.401h-819.199c-19.2 0-34.134-14.934-34.134-34.134v-469.333c0-55.467 46.933-100.267 102.4-100.267h682.666c55.467 0 102.4 44.8 102.4 100.267v469.333c0 19.2-14.934 34.134-34.134 34.134zM699.732 430.934c0-27.733-21.333-51.2-51.2-51.2h-273.067c-27.733 0-51.2 21.333-51.2 51.2 0 27.733 21.333 51.2 51.2 51.2h273.067c29.866 0 51.2-21.333 51.2-51.2z" />
<glyph unicode="&#xe93c;" glyph-name="new_custom14" d="M989.869 752h-102.4c-21.333 0-44.8 10.666-61.867 25.6l-81.067 70.4c-17.067 14.934-40.533 25.6-61.867 25.6h-200.534c-25.6 0-49.066-10.666-68.266-29.866l-106.667-87.466c-8.533-6.4-8.533-21.333-2.133-29.866l31.999-31.999c21.333-17.067 51.2-21.333 72.533-4.266l93.866 57.6c12.8 8.533 29.866 4.266 38.4-4.266l294.4-290.133c6.4-6.4 12.8-17.067 12.8-27.733v-76.8c0-21.333 14.934-42.667 34.134-42.667h102.4c19.2 0 34.134 14.934 34.134 36.267v375.467c4.266 21.333-10.666 34.134-29.866 34.134zM699.735 442.667l-183.467 181.334-51.2-31.999c-25.6-14.934-55.467-23.467-83.2-23.467-36.267 0-72.533 12.8-102.4 38.4l-68.266 53.334c-14.934 12.8-23.467 25.6-25.6 44.8-4.266 19.2-17.067 29.866-34.134 29.866h-117.334c-19.2 0-34.134-10.666-34.134-29.866v-313.6c0-21.333 14.934-34.134 34.134-34.134h68.266c4.266 0 12.8 19.2 19.2 27.733 25.6 34.134 64 53.334 104.533 59.733 40.533 4.266 81.067-10.666 113.066-40.533l213.333-196.266c19.2-17.067 31.999-36.267 40.533-59.733 4.266-12.8 19.2-14.934 27.733-6.4l81.067 81.067c40.533 40.533 72.533 138.667 34.134 183.467l-36.267 36.267zM270.935 314.667c-21.333 21.333-55.467 17.067-72.533-6.4-19.2-23.467-14.934-59.733 6.4-78.934l213.333-194.133c10.666-10.666 23.467-12.8 38.4-12.8 12.8 2.133 25.6 8.533 34.134 21.333 19.2 23.467 14.934 59.733-6.4 78.934l-213.333 192z" />
<glyph unicode="&#xe93d;" glyph-name="new_custom15" d="M853.332 514.134c-59.733 25.6-68.266 46.933-68.266 72.533s17.067 46.933 38.4 66.133c36.267 31.999 55.467 76.8 55.467 128 0 96-59.733 179.2-168.533 179.2-91.733 0-149.333-61.867-164.267-140.8-2.133-6.4 2.133-12.8 6.4-17.067 76.8-55.467 123.733-147.2 123.733-258.133 0-76.8-25.6-147.2-72.533-200.534-6.4-8.533-4.266-21.333 6.4-27.733 29.866-12.8 64-29.866 98.134-46.933 10.666-6.4 21.333-10.666 34.134-10.666h196.266c46.933 0 85.333 38.4 85.333 83.2v12.8c0 81.067-83.2 123.733-170.666 160zM548.266 232.535c-72.533 29.866-81.067 55.467-81.067 85.333s21.333 55.467 44.8 78.934c40.533 38.4 64 89.6 64 149.333 0 113.066-72.533 209.067-198.399 209.067s-198.399-98.134-198.399-209.067c0-61.867 21.333-113.066 64-149.333 23.467-21.333 44.8-49.066 44.8-78.934s-10.666-55.467-81.067-85.333c-104.533-42.667-202.667-91.733-204.8-183.467v-14.934c-2.133-53.334 44.8-98.134 102.4-98.134h546.133c55.467 0 102.4 44.8 102.4 98.134v14.934c-2.133 91.733-100.267 140.8-204.8 183.467z" />
<glyph unicode="&#xe93e;" glyph-name="new_custom16" d="M880.005 106.668h-17.067v375.467c0 19.2-14.934 34.134-34.134 34.134h-34.134c-19.2 0-34.134-14.934-34.134-34.134v-375.467h-100.267v375.467c0 19.2-14.934 34.134-34.134 34.134h-34.134c-19.2 0-34.134-14.934-34.134-34.134v-375.467h-100.267v375.467c0 19.2-14.934 34.134-34.134 34.134h-34.134c-19.2 0-34.134-14.934-34.134-34.134v-375.467h-100.267v375.467c0 19.2-14.934 34.134-34.134 34.134h-34.134c-19.2 0-34.134-14.934-34.134-34.134v-375.467h-10.666c-55.467 0-100.267-46.933-100.267-102.4v-34.134c0-19.2 14.934-34.134 34.134-34.134h872.531c19.2 0 34.134 14.934 34.134 34.134v34.134c-2.133 55.467-46.933 102.4-102.4 102.4zM963.205 714.668l-413.867 232.533c-10.666 8.533-25.6 12.8-38.4 12.8s-27.733-4.266-38.4-12.8l-413.867-232.533c-10.666-6.4-17.067-17.067-17.067-29.866v-31.999c0-19.2 14.934-34.134 34.134-34.134h872.531c19.2 0 34.134 14.934 34.134 34.134v29.866c-2.133 12.8-8.533 25.6-19.2 31.999zM510.938 686.934c-46.933 0-83.2 38.4-83.2 85.333s36.267 85.333 83.2 85.333 83.2-38.4 83.2-85.333-36.267-85.333-83.2-85.333z" />
<glyph unicode="&#xe93f;" glyph-name="new_custom17" d="M394.42 810.355c4.275-12.826 17.102-19.24 29.929-19.24h173.161c12.826 0 25.654 6.414 29.929 19.24l68.409 126.13c4.275 12.826-4.275 23.516-14.965 23.516h-335.632c-12.826 0-21.378-12.826-14.965-23.516l64.134-126.13zM612.475 688.501h-200.952c-168.885 0-305.703-138.956-305.703-307.841v-342.046c0-55.582 44.894-102.614 102.614-102.614h607.131c55.582 0 102.614 47.031 102.614 102.614v342.046c0 168.885-138.956 307.841-305.703 307.841zM563.306 113.437v-57.72c0-10.689-10.689-17.102-21.378-17.102h-68.409c-10.689 0-12.826 6.414-12.826 17.102v55.582c-51.307 10.689-94.062 32.066-104.751 42.756-12.826 12.826-17.102 23.516-6.414 38.48l21.378 34.205c4.275 8.551 14.965 12.826 25.654 12.826 6.414 0 12.826-2.138 17.102-4.275h2.138c34.205-21.378 64.134-29.929 85.511-29.929 23.516 0 42.756 12.826 42.756 25.654 0 10.689-6.414 27.791-70.547 49.169-57.72 21.378-128.267 55.582-128.267 134.681 0 47.031 29.929 100.476 115.44 117.579v51.307c0 10.689 4.275 17.102 12.826 17.102h68.409c10.689 0 21.378-6.414 21.378-17.102v-49.169c34.205-8.551 70.547-25.654 83.374-34.205 6.414-4.275 10.689-12.826 12.826-21.378s-2.138-17.102-6.414-21.378l-25.654-29.929c-6.414-8.551-19.24-14.965-27.791-14.965-4.275 0-10.689 2.138-14.965 4.275-34.205 19.24-61.996 29.929-81.236 29.929-27.791 0-40.618-12.826-40.618-21.378 0-12.826 6.414-25.654 64.134-47.031 70.547-23.516 149.645-61.996 149.645-143.231-2.138-57.72-47.031-106.89-113.302-121.854z" />
<glyph unicode="&#xe940;" glyph-name="new_custom18" d="M624.596 675.319h174.207c12.746 0 23.37 10.622 23.37 23.37 0 6.374-2.124 10.622-6.374 16.996l-216.697 214.572c-6.374 4.248-10.622 6.374-16.996 6.374-12.746 0-23.37-10.622-23.37-23.37v-172.083c0-36.116 29.742-65.859 65.859-65.859zM1009.128 454.373l-19.12 19.12c-12.746 12.746-31.867 12.746-46.738 0l-252.813-252.813c-2.124-2.124 0-4.248 0-6.374v-53.112c0-4.248 0-8.498 4.248-8.498h55.236c2.124 0 4.248 2.124 6.374 2.124l252.813 250.688c14.872 16.996 14.872 36.116 0 48.863zM805.178 57.095h-150.838c-33.992 0-61.61 27.618-61.61 61.61v114.721c0 16.996 4.248 33.992 19.12 44.614l201.826 201.826c6.374 6.374 10.622 14.872 10.622 23.37v42.49c0 16.996-14.872 31.867-31.867 31.867h-233.692c-55.236 0-97.726 44.614-97.726 97.726v229.444c0 16.996-14.872 31.867-33.992 31.867h-329.295c-53.112 0-97.726-44.614-97.726-97.726v-781.809c0-53.112 44.614-97.726 97.726-97.726h624.597c46.738 0 89.228 33.992 97.726 78.606 2.124 8.498-6.374 19.12-14.872 19.12zM131.718 643.451c0 16.996 14.872 31.867 31.867 31.867h131.717c19.12 0 31.867-14.872 31.867-31.867v-31.867c0-16.996-14.872-31.867-31.867-31.867h-131.717c-19.12 0-31.867 14.872-31.867 31.867v31.867zM461.012 220.679c0-16.996-14.872-31.867-31.867-31.867h-265.56c-19.12 0-31.867 14.872-31.867 31.867v31.867c0 16.996 14.872 31.867 31.867 31.867h263.436c19.12 0 31.867-14.872 31.867-31.867v-31.867zM526.871 416.132c0-16.996-14.872-31.867-31.867-31.867h-331.419c-19.12 0-31.867 14.872-31.867 31.867v31.867c0 16.996 14.872 31.867 31.867 31.867h329.295c19.12 0 31.867-14.872 31.867-31.867v-31.867z" />
<glyph unicode="&#xe941;" glyph-name="new_custom19" d="M1011.358 738.765c-4.213 12.642-18.963 14.749-29.498 6.321l-170.667-170.667c-12.642-12.642-33.712-12.642-46.354 0l-120.099 120.099c-12.642 12.642-12.642 33.712 0 46.354l172.774 170.667c8.428 8.428 4.213 23.177-6.321 29.498-29.498 8.428-61.103 12.642-90.601 12.642-179.095 0-322.37-153.811-301.3-337.119 4.213-29.498 10.535-54.782 21.070-80.066l-394.008-391.901c-46.354-46.354-46.354-122.205 0-166.452 23.177-23.177 54.782-35.819 84.28-35.819s61.103 12.642 84.28 35.819l391.901 391.901c25.284-10.535 52.675-16.856 80.066-21.070 183.309-21.070 337.119 122.205 337.119 301.3 0 31.604-4.213 61.103-12.642 88.494z" />
<glyph unicode="&#xe942;" glyph-name="new_custom20" d="M308.050 484.116c0 12.746-16.996 21.244-27.618 12.746l-237.942-180.581c-25.494-19.12-40.365-50.988-40.365-82.855v-70.108c0-12.746 12.746-21.244 21.244-14.872l261.311 97.726c12.746 4.248 21.244 16.996 21.244 31.867 2.124 2.124 2.124 206.074 2.124 206.074zM684.083 10.358l-70.108 46.738v769.063c0 46.738-48.863 97.726-80.73 123.219-12.746 10.622-29.742 10.622-42.49 0-29.742-25.494-80.73-76.481-80.73-123.219v-771.187l-78.606-50.988c-12.746-10.622-23.37-25.494-23.37-42.49v-10.622c0-8.498 6.374-14.872 14.872-14.872h376.033c8.498 0 19.12 6.374 19.12 14.872-2.124 25.494-14.872 44.614-33.992 59.485zM981.511 316.283l-237.942 182.705c-12.746 8.498-27.618 0-27.618-12.746v-208.199c0-12.746 8.498-27.618 21.244-31.867l263.436-99.851c12.746-4.248 21.244 4.248 21.244 14.872v70.108c0 33.992-14.872 65.859-40.365 84.979z" />
<glyph unicode="&#xe943;" glyph-name="new_custom21" d="M642.133 86.401c-4.266 12.8-17.067 19.2-29.866 19.2h-198.399c-12.8 0-25.6-6.4-29.866-19.2l-46.933-125.867c-4.266-12.8 4.266-23.467 14.934-23.467h320c12.8 0 21.333 12.8 14.934 23.467l-44.8 125.867zM921.6 958.933h-819.2c-55.467 0-102.4-44.8-102.4-102.4v-546.133c0-55.467 46.933-102.4 102.4-102.4h819.2c55.467 0 102.4 46.933 102.4 102.4v546.133c0 57.6-46.933 102.4-102.4 102.4zM512 242.134c-29.866 0-51.2 21.333-51.2 51.2s21.333 51.2 51.2 51.2 51.2-21.333 51.2-51.2-21.333-51.2-51.2-51.2zM921.6 412.8c0-19.2-14.934-34.134-34.134-34.134h-750.933c-19.2 0-34.134 14.934-34.134 34.134v409.6c0 19.2 14.934 34.134 34.134 34.134h750.933c19.2 0 34.134-14.934 34.134-34.134v-409.6z" />
<glyph unicode="&#xe944;" glyph-name="new_custom22" d="M969.44 208.789l-104.918 83.934c-35.672 29.377-86.032 29.377-121.704 4.196l-98.623-71.344c-12.59-10.492-31.475-8.394-44.066 4.196l-163.672 146.885-148.983 163.672c-12.59 12.59-12.59 29.377-4.196 44.066l71.344 98.623c27.279 37.77 25.181 88.131-4.196 121.704l-83.934 104.918c-33.574 46.164-102.819 50.361-144.787 8.394l-90.23-92.328c-20.983-20.983-29.377-48.262-29.377-75.541 12.59-214.033 109.115-417.574 251.803-560.262s344.131-239.213 558.163-251.803c29.377-2.098 54.557 10.492 75.541 29.377l90.23 90.23c44.066 44.066 39.868 113.311-8.394 151.082z" />
<glyph unicode="&#xe945;" glyph-name="new_custom23" d="M494.128 351.277c12.616-12.616 31.54-12.616 46.259 0l475.202 433.151c8.411 16.822 6.308 42.054-27.335 42.054h-941.995c-25.232 0-46.259-25.232-27.335-44.156l475.202-431.047zM1019.793 599.393c0 21.026-27.335 33.643-42.054 18.924l-370.070-338.53c-25.232-23.13-56.772-35.745-90.415-35.745s-65.183 12.616-90.415 35.745l-372.173 336.427c-16.822 14.719-42.054 4.205-42.054-18.924v-428.945c0-54.669 46.259-98.826 100.928-98.826h807.425c54.669 0 100.928 44.156 100.928 98.826-2.102 0-2.102 298.579-2.102 431.047z" />
<glyph unicode="&#xe946;" glyph-name="new_custom24" d="M817.066 960h-610.133c-55.467 0-100.267-46.933-100.267-100.267v-2.133c0-19.2 14.934-34.134 34.134-34.134h742.399c19.2 0 34.134 14.934 34.134 34.134v2.133c0 53.334-44.8 100.267-100.267 100.267zM814.933 721.068h-605.867c-19.2 0-34.134-14.934-34.134-34.134v-716.8c0-19.2 14.934-34.134 34.134-34.134h187.733c19.2 0 31.999 14.934 31.999 34.134v136.534c0 19.2 17.067 34.134 36.267 34.134h98.134c19.2 0 36.267-14.934 36.267-34.134v-136.534c0-19.2 12.8-34.134 31.999-34.134h187.733c19.2 0 34.134 14.934 34.134 34.134v716.8c-4.266 19.2-19.2 34.134-38.4 34.134zM460.799 260.268c0-19.2-14.934-34.134-34.134-34.134h-68.266c-19.2 0-34.134 14.934-34.134 34.134v68.266c0 19.2 14.934 34.134 34.134 34.134h68.266c19.2 0 34.134-14.934 34.134-34.134v-68.266zM460.799 499.201c0-19.2-14.934-34.134-34.134-34.134h-68.266c-19.2 0-34.134 14.934-34.134 34.134v68.266c0 19.2 14.934 34.134 34.134 34.134h68.266c19.2 0 34.134-14.934 34.134-34.134v-68.266zM697.599 260.268c0-19.2-14.934-34.134-34.134-34.134h-66.133c-19.2 0-34.134 14.934-34.134 34.134v68.266c0 19.2 14.934 34.134 34.134 34.134h68.266c19.2 0 34.134-14.934 34.134-34.134v-68.266zM697.599 499.201c0-19.2-14.934-34.134-34.134-34.134h-66.133c-19.2 0-34.134 14.934-34.134 34.134v68.266c0 19.2 14.934 34.134 34.134 34.134h68.266c19.2 0 34.134-14.934 34.134-34.134v-68.266z" />
<glyph unicode="&#xe947;" glyph-name="new_custom25" d="M1015.537 830.943c-12.694 63.471-63.471 114.247-129.058 122.71-46.545 6.347-88.86-8.463-120.595-33.852-10.578-8.463-8.463-21.157 4.231-29.62 78.281-40.198 143.868-99.438 194.644-171.372 6.347-10.578 21.157-10.578 29.62 0 21.157 31.735 29.62 69.818 21.157 112.132zM251.77 890.182c10.578 4.231 12.694 21.157 4.231 29.62-31.735 27.504-74.049 40.198-120.595 33.852-63.471-8.463-116.364-59.239-129.058-122.71-6.347-40.198 2.115-80.397 21.157-110.016 6.347-10.578 21.157-10.578 29.62 0 50.777 67.702 116.364 126.942 194.644 169.255zM512.001 852.1c-251.768 0-456.991-205.222-456.991-456.991 0-101.553 33.852-196.76 88.86-270.81l-69.818-69.818c-27.504-27.504-27.504-69.818 0-97.323 12.694-12.694 29.62-21.157 46.545-21.157s33.852 6.347 46.545 21.157l69.818 69.818c78.281-55.008 173.487-88.86 275.041-88.86s196.76 33.852 270.81 88.86l69.818-69.818c14.81-12.694 31.735-21.157 48.661-21.157s33.852 6.347 46.545 21.157c27.504 27.504 27.504 69.818 0 97.323l-69.818 69.818c55.008 74.049 88.86 169.255 88.86 270.81 2.115 251.768-203.107 456.991-454.876 456.991zM190.415 395.109c0 177.718 143.868 321.586 321.586 321.586s321.586-143.868 321.586-321.586-143.868-321.586-321.586-321.586-321.586 143.868-321.586 321.586zM562.778 416.266v131.173c0 29.62-21.157 50.777-50.777 50.777s-50.777-21.157-50.777-50.777v-152.331c0-12.694 4.231-27.504 14.81-35.967l118.479-118.479c10.578-10.578 23.273-14.81 35.967-14.81s25.389 4.231 35.967 14.81c21.157 21.157 21.157 52.893 0 71.934l-103.669 103.669z" />
<glyph unicode="&#xe948;" glyph-name="new_custom26" d="M102.4 959.999c-55.467 0-102.4-46.933-102.4-102.4 0-29.866 12.8-57.6 34.134-76.8v-776.532c0-38.4 29.866-68.266 68.266-68.266s68.266 29.866 68.266 68.266v776.532c21.333 19.2 34.134 46.933 34.134 76.8 0 55.467-46.933 102.4-102.4 102.4zM998.399 776.533c-268.8-140.8-450.133 100.267-703.999 8.533-12.8-4.266-21.333-17.067-21.333-31.999v-439.467c0-21.333 21.333-38.4 44.8-31.999 243.199 72.533 424.533-155.733 689.066-10.666 10.666 4.266 17.067 17.067 17.067 29.866v458.666c0 14.934-12.8 23.467-25.6 17.067z" />
<glyph unicode="&#xe949;" glyph-name="new_custom27" d="M96 243.201h832c17.067 0 32 14.934 32 32v505.6c0 51.201-42.667 93.867-96 93.867h-703.999c-53.334 0-96-42.667-96-93.867v-505.6c0-19.2 14.934-32 32-32zM160 748.802c0 17.067 14.934 32 32 32h639.999c17.067 0 32-14.934 32-32v-379.734c0-17.067-14.934-32-32-32h-639.999c-17.067 0-32 14.934-32 32v379.734zM992 147.2h-352c-17.067 0-32-14.934-32-32s-14.934-32-32-32h-128c-17.067 0-32 14.934-32 32s-14.934 32-32 32h-352c-17.067 0-32-14.934-32-32 0-51.201 42.667-93.867 96-93.867h832c53.334 0 96 42.667 96 93.867 0 19.2-14.934 32-32 32z" />
<glyph unicode="&#xe94a;" glyph-name="new_custom28" d="M750.933 960h-477.867c-55.467 0-102.4-46.933-102.4-102.4v-819.2c0-55.467 46.933-102.4 102.4-102.4h477.867c55.467 0 102.4 46.933 102.4 102.4v819.2c0 55.467-46.933 102.4-102.4 102.4zM512-29.866c-29.866 0-51.2 21.333-51.2 51.2s21.333 51.2 51.2 51.2 51.2-21.333 51.2-51.2-21.333-51.2-51.2-51.2zM750.933 140.801c0-19.2-14.934-34.134-34.134-34.134h-409.6c-19.2 0-34.134 14.934-34.134 34.134v648.533c0 19.2 14.934 34.134 34.134 34.134h409.6c19.2 0 34.134-14.934 34.134-34.134v-648.533z" />
<glyph unicode="&#xe94b;" glyph-name="new_custom29" d="M923.733 823.468h-31.999c-21.333 0-36.267-17.067-36.267-38.4v-678.399c0-2.133 0-4.266 2.133-6.4l42.667-59.733c4.266-4.266 8.533-4.266 12.8 0l42.667 59.733c4.266 2.133 4.266 2.133 4.266 6.4v678.399c0 21.333-14.934 38.4-36.267 38.4zM650.666 960h-484.266c-55.467 0-102.4-46.933-102.4-102.4v-819.2c0-55.467 46.933-102.4 102.4-102.4h482.133c57.6 0 102.4 46.933 102.4 102.4v819.2c2.133 55.467-44.8 102.4-100.267 102.4zM409.599-29.866c-29.866 0-51.2 21.333-51.2 51.2s21.333 51.2 51.2 51.2 51.2-21.333 51.2-51.2-23.467-51.2-51.2-51.2zM650.666 140.801c0-19.2-14.934-34.134-34.134-34.134h-413.867c-19.2 0-34.134 14.934-34.134 34.134v648.533c0 19.2 14.934 34.134 34.134 34.134h413.867c19.2 0 34.134-14.934 34.134-34.134v-648.533z" />
<glyph unicode="&#xe94c;" glyph-name="new_custom30" d="M882.405 818.405c-90.292 90.292-211.367 139.543-336.545 139.543-28.729 0-49.251-20.521-49.251-49.251s20.521-49.251 49.251-49.251c100.553 0 194.95-38.99 268.825-110.813 69.772-71.824 110.813-168.273 110.813-268.825 0-28.729 20.521-49.251 49.251-49.251s49.251 20.521 49.251 49.251c-2.052 127.23-51.303 248.305-141.595 338.597zM545.86 760.946c-28.729 0-49.251-20.521-49.251-49.251s20.521-49.251 49.251-49.251c47.198 0 94.397-18.469 129.283-53.355s53.355-77.98 53.355-129.283c0-28.729 20.521-49.251 49.251-49.251s49.251 20.521 49.251 49.251c0 73.875-28.729 145.699-82.084 197.002-55.407 53.355-125.178 84.136-199.054 84.136zM474.036 288.962l43.094 114.918c28.729-12.312 61.563-4.104 86.189 18.469 32.834 32.834 32.834 84.136 0 116.97s-84.136 32.834-116.97 0c-24.625-24.625-28.729-61.563-16.417-92.344l-106.709-47.198-192.898 192.898c-12.312 12.312-36.938 12.312-47.198-2.052-123.126-147.752-114.918-369.379 24.625-506.871 137.491-137.491 359.118-145.699 506.871-24.625 14.365 12.312 14.365 34.886 2.052 47.198l-182.638 182.638z" />
<glyph unicode="&#xe94d;" glyph-name="new_custom31" d="M947.198 561.065l-83.2 256c-14.934 46.933-61.867 78.934-113.066 78.934h-477.866c-51.2 0-98.134-31.999-115.199-78.934l-81.067-256c-44.8-12.8-76.8-49.066-76.8-95.999v-198.399c0-42.667 29.866-78.934 68.266-93.866v-138.666c0-19.2 14.934-34.134 34.134-34.134h136.533c19.2 0 34.134 14.934 34.134 34.134v132.266h477.866v-132.266c0-19.2 14.934-34.134 34.134-34.134h136.533c19.2 0 34.134 14.934 34.134 34.134v136.533c38.4 12.8 68.266 49.066 68.266 93.866v198.399c0 49.066-31.999 85.333-76.8 98.134zM170.666 281.599c-46.933 0-85.333 36.267-85.333 83.2s38.4 83.2 85.333 83.2 85.333-36.267 85.333-83.2-38.4-83.2-85.333-83.2zM546.133 563.198h-337.066c-12.8 0-21.333 10.666-17.067 21.333l64 198.399c2.133 6.4 8.533 10.666 14.934 10.666h477.866c6.4 0 12.8-4.266 14.934-10.666l64-200.533c4.266-10.666-4.266-21.333-17.067-21.333h-264.533zM836.265 281.599c-46.933 0-85.333 36.267-85.333 83.2s38.4 83.2 85.333 83.2 85.333-36.267 85.333-83.2-38.4-83.2-85.333-83.2z" />
<glyph unicode="&#xe94e;" glyph-name="new_custom32" d="M998.398 699.732l-398.932-228.267c-8.533-4.266-17.067-6.4-25.6-6.4-19.2 0-38.4 10.666-46.933 29.866-12.8 23.467 0 55.467 23.467 68.266l132.266 74.667v130.133c0 12.8-12.8 21.333-25.6 14.934l-486.399-277.332c-8.533-4.266-17.067-6.4-25.6-6.4-17.067 0-36.267 8.533-44.8 25.6-12.8 23.467-4.266 55.467 19.2 70.4l83.2 46.933v283.733c2.133 19.2-12.8 34.134-31.999 34.134h-136.534c-19.2 0-34.134-14.934-34.134-34.134v-887.464c0-55.467 46.933-102.4 102.4-102.4h290.132c19.2 0 34.134 14.934 34.134 34.134v119.467c0 19.2 14.934 34.134 34.134 34.134h102.4c19.2 0 34.134-14.934 34.134-34.134v-119.467c0-19.2 14.934-34.134 34.134-34.134h290.132c55.467 0 102.4 46.933 102.4 102.4v644.266c0 14.934-12.8 23.467-25.6 17.067zM256 226.133c0-19.2-14.934-34.134-34.134-34.134h-34.134c-19.2 0-34.134 14.934-34.134 34.134v102.4c0 19.2 14.934 34.134 34.134 34.134h34.134c19.2 0 34.134-14.934 34.134-34.134v-102.4zM460.799 226.133c0-19.2-14.934-34.134-34.134-34.134h-34.134c-19.2 0-34.134 14.934-34.134 34.134v102.4c0 19.2 14.934 34.134 34.134 34.134h34.134c19.2 0 34.134-14.934 34.134-34.134v-102.4zM665.599 226.133c0-19.2-14.934-34.134-34.134-34.134h-34.134c-19.2 0-34.134 14.934-34.134 34.134v102.4c0 19.2 14.934 34.134 34.134 34.134h34.134c19.2 0 34.134-14.934 34.134-34.134v-102.4zM870.398 226.133c0-19.2-14.934-34.134-34.134-34.134h-34.134c-19.2 0-34.134 14.934-34.134 34.134v102.4c0 19.2 14.934 34.134 34.134 34.134h34.134c19.2 0 34.134-14.934 34.134-34.134v-102.4z" />
<glyph unicode="&#xe94f;" glyph-name="new_custom33" d="M750.934 590.933h-462.934c-17.067 0-32-14.934-32-32v-125.867c0-17.067 14.934-32 32-32h465.067c17.067 0 32 14.934 32 32v125.867c0 17.067-14.934 32-34.134 32zM529.067 448c-27.733 0-46.933 21.333-46.933 46.933 0 27.733 21.333 46.933 46.933 46.933s46.933-21.333 46.933-46.933c0-25.6-21.333-46.933-46.933-46.933zM992 810.666h-960c-17.067 0-32-14.934-32-32v-32c0-34.134 27.733-64 64-64v-567.466c0-14.934 14.934-29.867 32-29.867h32c17.067 0 32 14.934 32 32v567.466h721.067v-567.466c0-17.067 14.934-32 32-32h32c17.067 0 32 14.934 32 32v567.466h-17.067c34.134 0 64 27.733 64 64v32c0 14.934-14.934 29.867-32 29.867z" />
<glyph unicode="&#xe950;" glyph-name="new_custom34" d="M376.033 788.978h271.933c19.12 0 33.992 19.12 29.743 38.241-16.996 74.357-84.979 131.718-165.71 131.718s-148.714-57.361-165.71-131.718c-4.248-19.12 10.622-38.241 29.743-38.241zM970.888 347.086c29.743 0 53.112 23.37 50.988 55.237-2.124 25.494-25.494 46.739-55.237 46.739h-148.714v84.979c97.727 38.241 167.834 144.465 169.958 269.808 0 25.494-16.996 46.739-42.49 53.112-31.867 4.248-59.485-19.12-59.485-50.988 0-72.233-33.992-135.967-82.855-165.71-19.12 29.743-50.988 46.739-87.103 46.739h-407.9c-36.116 0-67.983-19.12-87.103-46.739-48.863 29.743-82.855 91.353-82.855 163.586 0 27.618-21.245 53.112-46.739 55.237-29.743 2.124-55.237-21.245-55.237-50.988 0-125.345 72.233-233.693 169.958-271.933v-84.979h-148.714c-27.618 0-53.112-21.245-55.237-46.739-2.124-29.743 21.245-55.237 50.988-55.237h152.963v-84.979c-97.727-38.241-167.834-144.465-169.958-269.808 0-25.494 16.996-46.739 42.49-53.112 31.867-4.248 59.485 19.12 59.485 50.988 0 72.233 31.867 133.843 80.731 165.71 29.743-95.601 104.099-169.958 197.577-199.702 21.245-6.374 44.614 10.622 44.614 31.867v403.651c0 27.618 21.245 53.112 46.739 55.237 29.743 2.124 55.237-21.245 55.237-50.988v-410.025c0-23.37 21.245-38.241 44.614-31.867 93.477 29.743 167.834 106.225 197.577 199.702 46.739-29.743 80.731-91.353 80.731-161.461 0-27.618 21.245-53.112 46.739-55.237 29.743-2.124 55.237 21.245 55.237 50.988 0 125.345-72.233 233.693-169.958 271.933v84.979h152.963z" />
<glyph unicode="&#xe951;" glyph-name="new_custom35" d="M842.666 618.667c-29.866 0-53.334-21.333-53.334-51.2v-85.333c0-149.333-125.867-273.068-279.467-273.068s-279.467 123.733-279.467 273.068v85.333c0 29.866-23.467 51.2-53.334 51.2s-49.066-21.333-49.066-51.2v-85.333c0-189.867 145.067-345.601 330.668-371.201v-72.533h-87.466c-29.866 0-53.334-21.333-53.334-51.2s23.467-51.2 53.334-51.2h279.467c29.866 0 53.334 21.333 53.334 51.2s-23.467 51.2-53.334 51.2h-87.466v72.533c187.733 25.6 332.801 181.334 332.801 371.201v85.333c0 29.866-23.467 51.2-53.334 51.2zM511.998 311.467c96 0 174.933 76.8 174.933 170.666v309.334c0 93.866-76.8 168.533-172.8 168.533h-4.266c-96 0-172.8-74.667-172.8-168.533v-309.334c0-93.866 78.934-170.666 174.933-170.666z" />
<glyph unicode="&#xe952;" glyph-name="new_custom36" d="M324.266 72.533h-68.266c-10.666 0-23.467-6.4-27.733-17.067l-23.467-40.533c-12.8-23.467-8.533-55.467 12.8-70.4 8.533-6.4 19.2-8.533 27.733-8.533 17.067 0 34.134 8.533 42.667 25.6l49.066 85.333c8.533 12.8 0 25.6-12.8 25.6zM797.866 55.467c-6.4 10.666-17.067 17.067-27.733 17.067h-68.266c-12.8 0-21.333-12.8-14.934-25.6l49.066-85.333c10.666-17.067 27.733-25.6 42.667-25.6 10.666 0 19.2 4.266 27.733 8.533 21.333 14.934 27.733 46.933 12.8 70.4l-21.333 40.533zM795.733 960h-567.467c-55.467 0-100.267-46.933-100.267-102.4v-580.268c0-55.467 44.8-102.4 100.267-102.4h567.467c55.467 0 100.267 46.933 100.267 102.4v580.268c0 55.467-44.8 102.4-100.267 102.4zM277.333 243.2c-27.733 0-49.066 21.333-49.066 51.2s21.333 51.2 49.066 51.2 49.066-21.333 49.066-51.2-19.2-51.2-49.066-51.2zM746.665 243.2c-27.733 0-49.066 21.333-49.066 51.2s21.333 51.2 49.066 51.2 49.066-21.333 49.066-51.2-21.333-51.2-49.066-51.2zM795.733 448c0-19.2-14.934-34.134-34.134-34.134h-499.201c-19.2 0-34.134 14.934-34.134 34.134v341.333c0 19.2 14.934 34.134 34.134 34.134h501.334c19.2 0 34.134-14.934 34.134-34.134v-341.333z" />
<glyph unicode="&#xe953;" glyph-name="new_custom37" d="M992.002 351.999h-206.934v187.734c42.667-36.267 98.134-59.733 160-59.733 27.733 0 46.933 21.333 46.933 46.933s-21.333 46.933-46.933 46.933c-87.467 0-160 78.934-160 174.934v51.201c17.067 0 32 14.934 32 32v32c0 17.067-14.934 32-32 32h-96c-17.067 0-32-14.934-32-32v-32c0-17.067 14.934-32 32-32v-46.933c0-98.134-78.934-174.934-174.934-174.934s-174.934 78.934-174.934 174.934v46.933c17.067 0 32 14.934 32 32v32c0 17.067-14.934 32-32 32h-96c-17.067 0-32-14.934-32-32v-32c0-17.067 14.934-32 32-32v-46.933c0-98.134-72.534-174.934-160-174.934-27.733 0-46.933-21.333-46.933-46.933s21.333-46.933 46.933-46.933c59.733 0 117.334 23.467 160 59.733v-187.734h-211.201c-17.067-4.266-32-19.2-32-36.267v-76.8c0-17.067 14.934-36.267 32-36.267h64v-172.801c0-17.067 14.934-34.134 32-34.134h96c17.067 0 32 17.067 32 34.134v64c0 53.334 42.667 93.867 96 93.867h320.001c53.334 0 96-40.533 96-93.867v-64c0-17.067 14.934-34.134 32-34.134h96c17.067 0 32 17.067 32 34.134v172.801h64c17.067 0 32 17.067 32 36.267v76.8c0 17.067-14.934 32-32 32zM337.067 546.133c46.933-40.533 108.801-66.133 174.934-66.133s128.001 23.467 174.934 66.133v-194.134h-349.867v194.134z" />
<glyph unicode="&#xe954;" glyph-name="new_custom38" d="M511.999 533.333c-74.667 0-136.534-61.867-136.534-136.534s61.867-136.534 136.534-136.534 136.534 61.867 136.534 136.534-61.867 136.534-136.534 136.534zM921.599 704h-138.667c-12.8 0-25.6 6.4-29.866 21.333l-44.8 93.866c-17.067 34.134-53.334 55.467-91.733 55.467h-209.067c-38.4 0-74.667-21.333-91.733-55.467l-44.8-93.866c-4.266-12.8-17.067-21.333-29.866-21.333h-138.667c-55.467 0-102.4-46.933-102.4-102.4v-477.867c0-55.467 46.933-102.4 102.4-102.4h819.2c55.467 0 102.4 46.933 102.4 102.4v477.867c0 55.467-46.933 102.4-102.4 102.4zM511.999 153.6c-132.266 0-238.933 106.667-238.933 238.933s106.667 238.933 238.933 238.933 238.933-106.667 238.933-238.933-106.667-238.933-238.933-238.933z" />
<glyph unicode="&#xe955;" glyph-name="new_custom39" d="M742.029 807.353c-4.24 12.72-19.081 21.2-31.801 19.081l-684.786-220.488c-16.961-4.24-25.441-23.321-21.2-40.281l27.561-106.005c4.24-16.961 21.2-29.681 38.161-25.441l173.847 23.321c4.24-19.081 12.72-38.161 25.441-53.002l-148.406-400.696c-10.6-25.441 2.12-55.122 29.681-63.603 4.24-2.12 12.72-4.24 16.961-4.24 21.2 0 40.281 12.72 46.642 33.922l139.925 379.494c12.72-4.24 21.2-4.24 33.922-4.24s23.321 2.12 33.922 4.24l139.925-379.494c6.361-21.2 27.561-33.922 46.642-33.922 4.24 0 12.72 2.12 16.961 4.24 27.561 10.6 40.281 38.161 29.681 65.722l-148.406 402.816c19.081 25.441 29.681 57.242 29.681 91.164v2.12l239.569 33.922c14.841 2.12 25.441 16.961 21.2 31.801l-55.122 239.569zM1017.639 567.784l-93.283 347.694c-6.361 27.561-36.041 44.522-63.603 38.161s-44.522-36.041-38.161-63.603l93.283-345.574c6.361-27.561 36.041-44.522 63.603-38.161s44.522 36.041 38.161 61.483z" />
<glyph unicode="&#xe956;" glyph-name="new_custom40" d="M921.6 832h-819.2c-55.467 0-102.4-44.8-102.4-100.267v-567.466c0-55.467 46.933-100.267 102.4-100.267h819.2c55.467 0 102.4 44.8 102.4 100.267v567.466c0 55.467-46.933 100.267-102.4 100.267zM921.6 731.734v-100.267h-819.2v100.267h819.2zM102.4 164.266v300.8h819.2v-300.8h-819.2zM394.666 381.867c-23.467 0-44.8-10.666-55.467-29.866-2.133-4.266-6.4-4.266-8.533 0-12.8 19.2-31.999 29.866-55.467 29.866-38.4 0-68.266-29.866-68.266-66.133s29.866-66.133 68.266-66.133c23.467 0 44.8 10.666 55.467 29.866 2.133 4.266 6.4 4.266 8.533 0 12.8-19.2 31.999-29.866 55.467-29.866h2.133c36.267 0 66.133 27.733 66.133 66.133v4.266c-2.133 31.999-31.999 61.867-68.266 61.867zM785.067 364.8h-204.8c-19.2 0-34.134-14.934-34.134-34.134v-31.999c0-19.2 14.934-34.134 34.134-34.134h204.8c19.2 0 34.134 14.934 34.134 34.134v34.134c0 17.067-14.934 31.999-34.134 31.999z" />
<glyph unicode="&#xe957;" glyph-name="new_custom41" d="M928 768.001h-832c-53.334 0-96-42.667-96-93.867v-452.267c0-51.201 42.667-93.867 96-93.867h832c53.334 0 96 42.667 96 93.867v452.267c0 51.201-42.667 93.867-96 93.867zM209.066 221.867c0 61.867-49.066 108.8-110.933 108.8v234.666c61.867 0 110.933 49.066 110.933 108.8h608c0-61.867 49.066-108.8 110.933-108.8v-234.666c-61.867 0-110.933-49.066-110.933-108.8h-608zM672 456.533c0-86.009-71.634-155.734-160-155.734s-160 69.724-160 155.734c0 86.009 71.634 155.734 160 155.734s160-69.724 160-155.734z" />
<glyph unicode="&#xe958;" glyph-name="new_custom42" d="M921.599 917.334h-819.199c-55.467 0-102.4-44.8-102.4-100.267v-100.267c0-19.2 14.934-34.134 34.134-34.134h955.732c19.2 0 34.134 14.934 34.134 34.134v100.267c0 55.467-46.933 100.267-102.4 100.267zM921.599 582.401h-819.199c-19.2 0-34.134-14.934-34.134-34.134v-469.333c0-55.467 46.933-100.267 102.4-100.267h682.666c55.467 0 102.4 44.8 102.4 100.267v469.333c0 19.2-14.934 34.134-34.134 34.134zM699.732 430.934c0-27.733-21.333-51.2-51.2-51.2h-273.067c-27.733 0-51.2 21.333-51.2 51.2 0 27.733 21.333 51.2 51.2 51.2h273.067c29.866 0 51.2-21.333 51.2-51.2z" />
<glyph unicode="&#xe959;" glyph-name="new_custom43" d="M1021.866 551.468s2.133 0 0 0c2.133 4.266 2.133 6.4 2.133 8.533v21.333s-2.133 2.133-2.133 4.266 0 2.133-2.133 2.133c0 2.133-2.133 2.133-2.133 4.266s-2.133 2.133-2.133 2.133l-185.6 262.4c-8.533 10.667-21.333 19.2-36.267 19.2h-558.934c-14.934 0-29.867-8.533-38.4-19.2l-187.734-260.267c0-2.133-2.133-2.133-2.133-2.133-2.133-2.133-2.133-2.133-2.133-4.266s0-2.133-2.133-2.133c0-2.133-2.133-2.133-2.133-4.266v-21.333c0-2.133 2.133-6.4 2.133-8.533v-2.133c2.133-2.133 2.133-4.266 2.133-6.4s2.133-2.133 2.133-2.133l2.133-2.133 473.601-509.868s2.133 0 2.133-2.133c2.133 0 2.133-2.133 2.133-2.133s2.133 0 2.133-2.133c0 0 2.133 0 2.133-2.133 0 0 2.133 0 2.133-2.133h34.134s2.133 0 2.133 2.133c0 0 2.133 0 2.133 2.133 0 0 2.133 0 2.133 2.133 0 0 2.133 0 2.133 2.133 2.133 0 2.133 2.133 2.133 2.133s2.133 0 2.133 2.133l6.4 6.4 469.335 505.602c0 2.133 2.133 2.133 2.133 2.133 2.133 0 4.266 2.133 4.266 4.266zM514.131 615.468h-74.667l74.667 123.733 74.667-123.733h-74.667zM514.131 523.735h93.867l-93.867-300.801-93.867 300.801h93.867zM595.198 784.002h117.334l-42.667-121.6-74.667 121.6zM360.53 662.402l-42.667 121.6h117.334l-74.667-121.6zM324.263 523.735l85.333-277.334-256.001 277.334h170.667zM703.999 523.735h170.667l-256.001-277.334 85.333 277.334zM889.599 615.468h-140.8l46.933 130.134 93.867-130.134zM230.396 745.602l46.933-130.134h-138.667l91.734 130.134z" />
<glyph unicode="&#xe95a;" glyph-name="new_custom44" d="M823.466 808.534c-87.466 113.066-160 151.466-313.6 151.466-68.266 0-151.466-27.733-185.6-34.134 0 19.2-14.934 34.134-34.134 34.134h-68.266c-19.2 0-34.134-14.934-34.134-34.134v-136.534c0-19.2 14.934-34.134 34.134-34.134h66.133c19.2 0 34.134 14.934 34.134 34.134h38.4c27.733 0 49.066-21.333 49.066-49.066v-2.133c0-29.866 21.333-51.2 51.2-51.2v-273.067c-36.267 0-66.133-29.866-66.133-68.266v-307.2c0-55.467 44.8-102.4 100.267-102.4h34.134c55.467 0 100.267 46.933 100.267 102.4v307.2c0 38.4-29.866 68.266-66.133 68.266v273.067c27.733 0 51.2 38.4 51.2 66.133v2.133c0 25.6 19.2 46.933 44.8 46.933 66.133 4.266 104.533-23.467 121.6-38.4 10.666-8.533 27.733-10.666 36.267-2.133 14.934 10.666 19.2 31.999 6.4 46.933z" />
<glyph unicode="&#xe95b;" glyph-name="new_custom45" d="M238.934 558.932h544v-224h-544zM1024 586.666v85.333c0 53.334-42.667 96-96 96h-832c-53.334 0-96-42.667-96-96v-85.333c0-10.667 6.4-23.467 17.067-27.733 38.4-23.467 64-64 64-110.933s-25.6-87.466-64-110.933c-10.667-4.266-17.067-14.934-17.067-25.6v-87.466c0-53.334 42.667-96 96-96h832c53.334 0 96 42.667 96 96v85.333c0 10.667-6.4 23.467-17.067 27.733-38.4 23.467-64 64-64 110.933s25.6 87.466 64 110.933c10.667 6.4 17.067 14.934 17.067 27.733zM849.067 238.932h-674.133c-17.067 0-32 14.934-32 32v352c0 17.067 14.934 32 32 32h672c17.067 0 32-14.934 32-32v-352c0-17.067-12.8-32-29.866-32z" />
<glyph unicode="&#xe95c;" glyph-name="new_custom46" d="M699.736 669.868h-375.464c-19.2 0-34.134-14.934-34.134-34.134v-375.464c0-19.2 14.934-34.134 34.134-34.134h375.464c19.2 0 34.134 14.934 34.134 34.134v375.464c0 19.2-14.934 34.134-34.134 34.134zM998.401 836.267c14.934 6.4 25.6 17.067 25.6 34.134v55.467c0 19.2-14.934 34.134-34.134 34.134h-55.467c-14.934 0-27.733-10.666-31.999-25.6-10.666-34.134-42.667-59.733-81.067-59.733s-70.4 25.6-81.067 59.733c-8.533 14.934-19.2 25.6-36.267 25.6h-78.934c-14.934 0-27.733-10.666-31.999-25.6-8.533-34.134-42.667-59.733-81.067-59.733s-70.4 25.6-81.067 59.733c-6.4 14.934-17.067 25.6-34.134 25.6h-76.799c-14.934 0-27.733-10.666-31.999-25.6-10.666-34.134-44.8-59.733-83.2-59.733s-70.4 25.6-81.067 59.733c-6.4 14.934-17.067 25.6-34.134 25.6h-55.467c-19.2 0-34.134-14.934-34.134-34.134v-55.467c0-17.067 10.666-27.733 25.6-34.134 34.134-8.533 59.733-42.667 59.733-81.067s-25.6-70.4-59.733-81.067c-14.934-6.4-25.6-17.067-25.6-34.134v-78.934c0-14.934 10.666-27.733 25.6-31.999 34.134-8.533 59.733-42.667 59.733-81.067s-25.6-70.4-59.733-81.067c-14.934-6.4-25.6-17.067-25.6-34.134v-76.799c0-14.934 10.666-27.733 25.6-31.999 34.134-10.666 59.733-44.8 59.733-83.2s-25.6-70.4-59.733-81.067c-14.934-6.4-25.6-17.067-25.6-34.134v-55.467c0-19.2 14.934-34.134 34.134-34.134h55.467c14.934 0 27.733 10.666 31.999 25.6 10.666 34.134 42.667 59.733 81.067 59.733s70.4-25.6 81.067-59.733c4.266-14.934 17.067-25.6 31.999-25.6h78.934c14.934 0 27.733 10.666 31.999 25.6 10.666 34.134 42.667 59.733 81.067 59.733s70.4-25.6 81.067-59.733c4.266-14.934 17.067-25.6 31.999-25.6h83.2c14.934 0 27.733 10.666 31.999 25.6 10.666 34.134 42.667 59.733 81.067 59.733s70.4-25.6 81.067-59.733c4.266-14.934 17.067-25.6 31.999-25.6h55.467c19.2 0 34.134 14.934 34.134 34.134v55.467c0 14.934-10.666 27.733-25.6 31.999-34.134 10.666-59.733 42.667-59.733 81.067s25.6 70.4 59.733 81.067c14.934 4.266 25.6 17.067 25.6 31.999v78.934c0 14.934-10.666 27.733-25.6 31.999-34.134 10.666-59.733 42.667-59.733 81.067s25.6 70.4 59.733 81.067c14.934 4.266 25.6 17.067 25.6 31.999v83.2c0 14.934-10.666 27.733-25.6 31.999-34.134 10.666-59.733 42.667-59.733 81.067s29.866 72.533 64 83.2zM836.269 226.138c0-55.467-46.933-102.4-102.4-102.4h-443.73c-55.467 0-102.4 46.933-102.4 102.4v443.73c0 55.467 46.933 102.4 102.4 102.4h443.73c55.467 0 102.4-46.933 102.4-102.4v-443.73z" />
<glyph unicode="&#xe95d;" glyph-name="new_custom47" d="M734.287 70.847h-583.638c-56.889 0-103.242-46.354-103.242-101.136v-2.107c0-16.856 14.749-31.604 31.604-31.604h724.806c16.856 0 31.604 14.749 31.604 31.604v2.107c2.107 54.782-44.247 101.136-101.136 101.136zM963.951 603.918l-273.909 248.625 44.247 65.317c6.321 10.535 2.107 23.177-10.535 25.284-84.28 16.856-134.848-40.033-134.848-40.033-528.856 0-442.469-570.996-417.186-703.737 4.213-14.749 16.856-27.391 33.712-27.391h465.646c14.749 0 23.177 16.856 14.749 27.391-94.814 113.777-143.276 240.197-174.881 320.263-4.213 12.642 8.428 29.498 23.177 21.070 124.313-63.21 176.987 4.213 261.268-46.354 42.14-25.284 92.708-18.963 126.42 14.749l46.354 46.354c8.428 12.642 8.428 33.712-4.213 48.461zM614.188 660.807c-29.498 0-50.568 21.070-50.568 50.568s23.177 50.568 50.568 50.568 50.568-21.070 50.568-50.568-21.070-50.568-50.568-50.568z" />
<glyph unicode="&#xe95e;" glyph-name="new_custom48" d="M989.867 891.732h-170.666v34.134c0 19.2-14.934 34.134-34.134 34.134h-546.132c-19.2 0-34.134-14.934-34.134-34.134v-34.134h-170.666c-19.2 0-34.134-14.934-34.134-34.134v-221.866c0-85.333 68.266-153.6 153.6-153.6h78.934c46.933-108.8 151.466-185.6 277.332-187.733 130.133-2.133 238.933 76.8 285.865 187.733h74.666c85.333 0 153.6 68.266 153.6 153.6v221.866c0 19.2-14.934 34.134-34.134 34.134zM153.603 584.533c-29.866 0-51.2 21.333-51.2 51.2v153.6h102.4v-181.334c0-8.533 0-14.934 2.133-23.467h-53.334zM921.6 635.733c0-29.866-21.333-51.2-51.2-51.2h-53.334c0 6.4 2.133 14.934 2.133 21.333v183.467h102.4v-153.6zM682.668 38.402h-17.067c-55.467 0-102.4 46.933-102.4 102.4v34.134c0 10.666-6.4 17.067-17.067 17.067h-68.266c-10.666 0-17.067-6.4-17.067-17.067v-34.134c0-55.467-46.933-102.4-102.4-102.4h-17.067c-19.2 0-34.134-14.934-34.134-34.134v-34.134c0-19.2 14.934-34.134 34.134-34.134h341.332c19.2 0 34.134 14.934 34.134 34.134v34.134c0 19.2-14.934 34.134-34.134 34.134z" />
<glyph unicode="&#xe95f;" glyph-name="new_custom49" d="M512 601.601c-85.333 0-153.601-68.266-153.601-153.601s68.266-153.601 153.601-153.601 153.601 68.266 153.601 153.601-68.266 153.601-153.601 153.601zM512 362.667c-46.933 0-85.333 38.4-85.333 85.333s38.4 85.333 85.333 85.333 85.333-38.4 85.333-85.333-38.4-85.333-85.333-85.333zM512 960c-283.734 0-512-228.267-512-512s228.267-512 512-512 512 228.267 512 512-228.267 512-512 512zM512 57.6c0-21.333-17.067-36.267-38.4-34.134-204.8 17.067-369.067 181.334-388.267 388.267 0 19.2 14.934 36.267 36.267 36.267h34.134c17.067 0 32-12.8 34.134-29.866 14.934-153.601 138.667-277.334 292.267-292.267 17.067-2.133 29.866-17.067 29.866-34.134v-34.134zM512 191.999c-140.8 0-256.001 115.2-256.001 256.001s115.2 256.001 256.001 256.001 256.001-115.2 256.001-256.001-115.2-256.001-256.001-256.001zM902.4 448h-34.134c-17.067 0-32 12.8-34.134 29.866-14.934 153.601-138.667 277.334-292.267 292.267-17.067 2.133-29.866 17.067-29.866 34.134v34.134c0 21.333 17.067 36.267 38.4 34.134 206.933-17.067 371.2-183.467 388.267-388.267 0-19.2-14.934-36.267-36.267-36.267z" />
<glyph unicode="&#xe960;" glyph-name="new_custom50" d="M963.951 334.224c-37.926-18.963-82.173-29.498-128.527-29.498-54.782 0-107.457 14.749-151.704 40.033-4.214 4.214-12.642 4.214-16.856 0-44.247-27.391-96.922-40.033-151.704-40.033s-107.457 14.749-151.704 40.033c-4.214 4.214-12.642 4.214-16.856 0-44.247-27.391-96.922-40.033-151.704-40.033-46.354 0-90.601 10.535-128.527 29.498-12.642 6.321-25.284-2.107-25.284-14.749v-206.486c0-40.033 23.177-75.852 61.103-94.815 84.28-37.926 174.881-65.317 271.803-77.959 21.070-4.214 37.926 12.642 37.926 33.712v128.527c0 56.889 46.354 101.136 99.029 101.136h2.107c54.782 0 99.029-46.354 99.029-101.136v-128.527c0-21.070 18.963-35.819 37.926-33.712 94.815 12.642 185.416 40.033 271.803 77.959 37.926 16.856 61.103 52.675 61.103 94.815v206.486c4.214 12.642-8.428 21.070-18.963 14.749zM192.789 407.969c61.103 0 113.777 25.284 147.49 67.424 6.321 8.428 18.963 8.428 25.284 0 33.712-40.033 88.494-67.424 147.49-67.424 61.103 0 113.777 25.284 147.49 67.424 6.321 8.428 18.963 8.428 25.284 0 33.712-40.033 88.494-67.424 147.49-67.424 94.815 0 174.881 67.424 183.309 149.596 2.107 12.642-4.214 23.177-12.642 31.604l-429.828 341.333c-37.926 29.498-90.601 29.498-124.313 0l-431.934-341.333c-8.428-6.321-12.642-18.963-12.642-31.604 12.642-84.28 92.708-149.596 187.523-149.596z" />
<glyph unicode="&#xe961;" glyph-name="new_custom51" d="M362.294 862.19c39.922-27.945 77.848-91.821 93.817-141.723 3.992-11.976 11.976-19.961 23.953-19.961 11.976-3.992 19.961-3.992 31.938-3.992 17.965 0 31.938 0 45.91 5.989 39.922 13.973 75.852 31.938 105.793 61.879 47.907 49.903 65.872 119.766 47.907 177.653-57.887 17.965-127.751 1.996-175.656-47.907-13.973-13.973-25.949-29.941-33.934-47.907-25.949 39.922-55.89 75.852-89.824 97.808-23.953 13.973-53.894 5.989-67.867-17.965-11.976-21.958-1.996-49.903 17.965-63.875zM845.35 628.647c-161.684 91.821-195.618-31.938-333.349-31.938s-171.665 123.758-333.349 31.938c-155.696-89.824-109.786-383.251-47.907-495.032 55.89-97.808 157.692-197.614 367.282-101.801 7.984 3.992 17.965 3.992 25.949 0 209.59-95.813 313.387 5.989 367.282 101.801 63.875 111.782 109.786 405.208-45.91 495.032z" />
<glyph unicode="&#xe962;" glyph-name="new_custom52" d="M1018.701 701.349c4.24 55.122 0 108.125-8.48 161.127-6.361 44.522-40.281 78.444-84.803 84.803-55.122 8.48-106.005 12.72-161.127 8.48-14.841 0-21.201-19.081-12.72-29.681l237.45-237.45c12.72-8.48 29.681 0 29.681 12.72zM618.005 919.718c-8.48 8.48-21.201 12.72-31.801 8.48-127.205-36.042-250.17-103.884-349.814-205.648-97.524-97.524-165.367-216.249-201.408-339.214-4.24-12.72 0-25.441 8.48-33.922l368.895-368.895c8.48-8.48 21.201-12.72 33.922-8.48 122.965 38.161 241.689 103.884 339.214 201.408 99.644 99.644 169.606 220.489 205.648 349.814 4.24 12.72 0 23.321-8.48 31.801l-364.655 364.655zM475.958 254.011c-21.201-21.201-53.002-21.201-72.083 0l-95.403 95.403c-21.201 21.201-21.201 53.002 0 72.083 21.201 21.201 53.002 21.201 72.083 0l95.403-95.403c21.201-21.201 21.201-53.002 0-72.083zM594.683 372.736c-21.201-21.201-53.002-21.201-72.083 0l-95.403 95.403c-21.201 21.201-21.201 53.002 0 72.083 21.201 21.201 53.002 21.201 72.083 0l95.403-95.403c21.201-21.201 21.201-53.002 0-72.083zM713.408 491.461c-21.201-21.201-53.002-21.201-72.083 0l-95.403 95.403c-21.201 21.201-21.201 53.002 0 72.083 21.201 21.201 53.002 21.201 72.083 0l95.403-95.403c21.201-21.201 21.201-53.002 0-72.083zM5.299 207.37c-4.24-57.242-2.12-114.484 8.48-173.847 6.361-44.522 40.281-78.444 84.803-84.803 57.242-8.48 114.484-12.72 173.847-8.48 14.841 2.12 21.201 19.081 12.72 29.681l-252.29 250.17c-8.48 8.48-27.561 2.12-27.561-12.72z" />
<glyph unicode="&#xe963;" glyph-name="new_custom53" d="M917.418 320.522h-10.449c-37.616 0-66.873 29.257-66.873 68.964v221.518c0 194.35-171.363 348.996-365.713 326.008-167.183-18.808-290.481-167.183-290.481-340.637v-198.53c0-41.796-35.527-77.323-75.232-77.323h-2.090c-29.257 0-54.335-25.078-54.335-54.335v-39.706c0-29.257 25.078-54.335 54.335-54.335h810.84c29.257 0 54.335 25.078 54.335 54.335v39.706c0 29.257-25.078 54.335-54.335 54.335zM620.667 69.747h-217.339c-12.538 0-25.078-10.449-20.898-22.988 12.538-62.694 64.783-110.759 131.657-110.759s119.118 45.975 131.657 110.759c0 12.538-10.449 22.988-25.078 22.988z" />
<glyph unicode="&#xe964;" glyph-name="new_custom54" d="M123.732 432c110.933 19.2 209.067 64 313.6 113.067 34.134 14.934 98.134 44.8 128 57.6 10.667 4.266 17.067 14.934 12.8 27.733-8.533 49.066-49.066 89.6-100.267 89.6h-34.134v64c0 19.2-17.067 34.134-34.134 34.134v68.266c0 19.2-14.934 34.134-34.134 34.134h-68.266c-19.2 0-34.134-14.934-34.134-34.134v-68.266c-17.067 0-34.134-14.934-34.134-34.134v-64h-34.134c-55.467 0-102.4-51.201-102.4-108.8v-160c0-12.8 10.667-21.333 21.333-19.2zM887.466 94.933s123.733 192 136.534 460.801c0 19.2-14.934 36.267-36.267 36.267-405.334-14.934-595.199-260.267-955.733-275.2-19.2 0-32-17.067-32-34.134v-128c0-55.467 42.667-98.134 96-102.4 179.2-10.667 563.2-36.267 782.933-72.534 21.333-4.266 42.667 17.067 38.4 38.4-4.266 27.733-12.8 57.6-29.866 76.8zM870.4 399.999c-29.866 0-51.201 21.333-51.201 51.201s21.333 51.201 51.201 51.201 51.201-21.333 51.201-51.201-21.333-51.201-51.201-51.201z" />
<glyph unicode="&#xe965;" glyph-name="new_custom55" d="M223.998 293.333h209.068c17.067 0 32 14.934 32 32v467.202c0 34.134-32 61.867-64 61.867h-170.667c-21.333 0-36.267-14.934-36.267-36.267v-494.935c-2.133-14.934 12.8-29.867 29.867-29.867zM928 760.535v-499.2c0-34.134-29.867-61.867-64-61.867h-704.001c-36.267 0-64 27.733-64 61.867v499.2c-53.334 0-96-42.667-96-93.867v-467.202c0-51.201 42.667-93.867 96-93.867h302.934c17.067 0 32-14.934 32-32s14.934-32 32-32h96c17.067 0 32 14.934 32 32s14.934 32 32 32h302.934c53.334 0 96 42.667 96 93.867v467.202c2.133 51.201-40.533 93.867-93.867 93.867zM593.066 293.333h202.667c21.333 0 36.267 14.934 36.267 36.267v492.801c0 17.067-14.934 32-32 32h-174.934c-32 0-64-27.733-64-61.867v-467.202c-2.133-17.067 12.8-32 32-32z" />
<glyph unicode="&#xe966;" glyph-name="new_custom56" d="M729.021 780.904c-105.35-105.35-233.877 23.177-351.869-94.814l-339.226-337.119c-37.926-37.926-37.926-101.136 0-139.061l235.984-235.984c37.926-37.926 101.136-37.926 139.061 0l341.333 339.226c117.992 117.992-12.642 246.519 94.814 351.869l27.391 27.391c6.321 6.321 6.321 16.856 0 23.177l-94.814 92.708c-6.321 6.321-16.856 6.321-23.177 0l-29.498-27.391zM646.848 348.97l-117.992-117.992c-12.642-12.642-33.712-12.642-46.354 0l-189.63 189.63c-12.642 12.642-12.642 33.712 0 46.354l117.992 117.992c12.642 12.642 33.712 12.642 46.354 0l189.63-189.63c14.749-12.642 14.749-33.712 0-46.354zM1009.251 875.72l-71.638 71.638c-12.642 12.642-33.712 12.642-46.354 0l-44.247-44.247c-6.321-6.321-6.321-16.856 0-23.177l92.708-92.708c6.321-6.321 16.856-6.321 23.177 0l44.247 42.14c16.856 10.535 16.856 31.604 2.107 46.354z" />
<glyph unicode="&#xe967;" glyph-name="new_custom57" d="M563.835 384.53v-427.373c0-14.81 14.81-21.157 25.389-14.81 82.512 46.545 334.281 192.529 334.281 192.529 31.735 19.041 52.893 55.008 52.893 93.091v382.943c0 14.81-14.81 21.157-25.389 14.81l-370.248-211.57c-8.463-6.347-16.926-16.926-16.926-29.62zM529.984 505.125l372.364 211.57c12.694 6.347 12.694 23.273 0 29.62-82.512 46.545-336.397 194.645-336.397 194.645-31.735 19.041-74.050 19.041-107.901 0 0 0-253.885-145.984-336.397-194.645-10.578-6.347-10.578-23.273 2.115-29.62l372.364-211.57c10.578-6.347 23.273-6.347 33.852 0zM443.239 416.266l-370.248 211.57c-10.578 6.347-25.389-2.115-25.389-16.926v-382.943c0-38.083 21.157-74.050 52.893-93.091 0 0 251.768-145.984 334.281-192.529 12.694-6.347 25.389 2.115 25.389 14.81v427.373c2.115 12.694-6.347 23.273-16.926 31.735z" />
<glyph unicode="&#xe968;" glyph-name="new_custom58" d="M798.211 514.781c-29.681 0-53.002 23.321-50.882 55.122 2.12 27.561 25.441 46.642 55.122 46.642h146.286c6.361 0 12.72 4.24 14.841 8.48 12.72 23.321 23.321 46.642 31.801 69.963 4.24 12.72-4.24 23.321-14.841 23.321h-108.124c-27.561 0-53.002 21.2-55.122 46.642-2.12 29.681 21.2 55.122 50.882 55.122h135.685c10.6 0 16.961 6.361 16.961 16.961v50.882c0 19.081-14.841 33.922-33.922 33.922h-180.207c-50.882 0-91.163-40.281-91.163-91.163v-2.12c0-95.403-63.602-180.207-152.646-203.527v139.925c36.041 21.2 57.242 59.362 50.882 103.884s-44.522 80.563-89.044 84.803c-61.483 6.361-114.484-40.281-114.484-101.764 0-38.161 21.2-69.963 50.882-89.044v-142.045c-89.044 23.321-152.646 108.124-152.646 203.527v4.24c0 50.882-40.281 91.163-91.163 91.163h-180.207c-19.081 0-33.922-14.841-33.922-33.922v-50.882c0-10.6 6.361-16.961 16.961-16.961h131.445c27.561 0 53.002-21.2 55.122-46.642 2.12-29.681-21.2-55.122-50.882-55.122h-110.244c-12.72 0-21.2-12.72-14.841-23.321 8.48-21.2 19.081-46.642 31.801-69.963 4.24-4.24 8.48-8.48 14.841-8.48h146.286c27.561 0 53.002-21.2 55.122-46.642 2.12-29.681-21.2-55.122-50.882-55.122h-40.281c-14.841 0-23.321-21.2-10.6-29.681 72.083-61.483 165.366-103.884 288.329-103.884v-385.853c0-27.561 21.2-53.002 46.642-55.122 29.681-2.12 55.122 21.2 55.122 50.882v390.093c122.964 0 216.249 44.522 288.329 103.884 12.72 10.6 4.24 29.681-10.6 29.681h-46.642z" />
</font>
</defs>
</svg>
